<svg width="25" height="27" viewBox="0 0 25 27" fill="none" xmlns="http://www.w3.org/2000/svg">
<g clip-path="url(#clip0)">
<g clip-path="url(#clip1)">
<path d="M-1.24338 4.39072H3.39725C3.81437 4.39072 4.15387 4.74564 4.15387 5.18173C4.15387 5.24992 4.05811 4.32418 5.59579 18.7932C4.75267 19.1399 4.15387 19.9989 4.15387 21.002C4.15387 22.3105 5.17216 23.3745 6.42374 23.3745H7.31041C7.22647 23.6221 7.18036 23.8888 7.18036 24.1661C7.18036 25.4746 8.19865 26.5392 9.45023 26.5392C10.7018 26.5392 11.7201 25.4746 11.7201 24.1661C11.7201 23.8888 11.674 23.6221 11.5901 23.3745H16.3901C16.3059 23.6221 16.2598 23.8888 16.2598 24.1661C16.2598 25.4746 17.2781 26.5392 18.5297 26.5392C19.7813 26.5392 20.7996 25.4746 20.7996 24.1661C20.7996 22.8576 19.7813 21.7931 18.5297 21.7931H6.42374C6.00661 21.7931 5.66712 21.4381 5.66712 21.002C5.66712 20.566 6.00661 20.211 6.42374 20.211H20.2743C21.3885 20.211 22.3302 19.3772 22.5132 18.2281L23.8158 10.0578C23.8523 9.82854 23.7906 9.59391 23.6468 9.41655C23.5029 9.23919 23.2919 9.13681 23.0695 9.13681H20.7996V5.18173C20.7996 4.74482 20.4609 4.39072 20.043 4.39072H13.99C13.5721 4.39072 13.2333 4.74482 13.2333 5.18173V5.97275H9.45023C9.03232 5.97275 8.69361 6.32685 8.69361 6.76376V9.13681H6.09212L5.66672 5.13353C5.64189 3.84731 4.63346 2.80869 3.39725 2.80869H-1.24338C-1.66129 2.80869 -2 3.16279 -2 3.5997C-2 4.03661 -1.66129 4.39072 -1.24338 4.39072ZM10.2069 24.1661C10.2069 24.6022 9.86736 24.9571 9.45023 24.9571C9.0331 24.9571 8.69361 24.6022 8.69361 24.1661C8.69361 23.73 9.0331 23.3745 9.45023 23.3745C9.86736 23.3745 10.2069 23.73 10.2069 24.1661ZM18.5297 24.9571C18.1126 24.9571 17.7731 24.6022 17.7731 24.1661C17.7731 23.7286 18.1126 23.3751 18.5297 23.3751C18.9468 23.3751 19.2863 23.73 19.2863 24.1661C19.2863 24.6022 18.9468 24.9571 18.5297 24.9571ZM14.7466 5.97275H19.2863V9.13681H14.7466V5.97275ZM10.2069 7.55478H13.2333V9.13681H10.2069V7.55478ZM22.1763 10.7188L21.0207 17.968C20.9596 18.3511 20.6457 18.629 20.2743 18.629H7.10096L6.2602 10.7188H22.1763Z" fill="#474747"/>
<path d="M9.45023 17.047C9.86814 17.047 10.2069 16.6929 10.2069 16.256V13.0919C10.2069 12.655 9.86814 12.3009 9.45023 12.3009C9.03231 12.3009 8.6936 12.655 8.6936 13.0919V16.256C8.6936 16.6929 9.03231 17.047 9.45023 17.047Z" fill="#474747"/>
<path d="M13.99 17.047C14.4079 17.047 14.7466 16.6929 14.7466 16.256V13.0919C14.7466 12.655 14.4079 12.3009 13.99 12.3009C13.5721 12.3009 13.2334 12.655 13.2334 13.0919V16.256C13.2334 16.6929 13.5721 17.047 13.99 17.047Z" fill="#474747"/>
<path d="M18.5296 17.047C18.9475 17.047 19.2862 16.6929 19.2862 16.256V13.0919C19.2862 12.655 18.9475 12.3009 18.5296 12.3009C18.1117 12.3009 17.7729 12.655 17.7729 13.0919V16.256C17.7729 16.6929 18.1117 17.047 18.5296 17.047Z" fill="#474747"/>
</g>
</g>
<defs>
<clipPath id="clip0">
<rect width="27" height="27" fill="white" transform="translate(-2)"/>
</clipPath>
<clipPath id="clip1">
<rect width="25.8261" height="27" fill="white" transform="translate(-2 1.17392)"/>
</clipPath>
</defs>
</svg>
