<svg width="148" height="148" viewBox="0 0 148 148" fill="none" xmlns="http://www.w3.org/2000/svg">
<rect width="5.96774" height="5.96774" fill="#474747"/>
<rect x="20.2903" width="5.96774" height="5.96774" fill="#474747"/>
<rect y="20.2903" width="5.96774" height="5.96774" fill="#474747"/>
<rect x="20.2903" y="20.2903" width="5.96774" height="5.96774" fill="#474747"/>
<rect x="40.5808" width="5.96774" height="5.96774" fill="#474747"/>
<rect x="60.8708" width="5.96774" height="5.96774" fill="#474747"/>
<rect x="40.5808" y="20.2903" width="5.96774" height="5.96774" fill="#474747"/>
<rect x="60.8708" y="20.2903" width="5.96774" height="5.96774" fill="#474747"/>
<rect y="40.5806" width="5.96774" height="5.96774" fill="#474747"/>
<rect x="20.2903" y="40.5806" width="5.96774" height="5.96774" fill="#474747"/>
<rect y="60.871" width="5.96774" height="5.96774" fill="#474747"/>
<rect x="20.2903" y="60.871" width="5.96774" height="5.96774" fill="#474747"/>
<rect x="40.5808" y="40.5806" width="5.96774" height="5.96774" fill="#474747"/>
<rect x="60.8708" y="40.5806" width="5.96774" height="5.96774" fill="#474747"/>
<rect x="40.5808" y="60.871" width="5.96774" height="5.96774" fill="#474747"/>
<rect x="60.8708" y="60.871" width="5.96774" height="5.96774" fill="#474747"/>
<rect x="81.1614" width="5.96774" height="5.96774" fill="#474747"/>
<rect x="101.452" width="5.96774" height="5.96774" fill="#474747"/>
<rect x="81.1614" y="20.2903" width="5.96774" height="5.96774" fill="#474747"/>
<rect x="101.452" y="20.2903" width="5.96774" height="5.96774" fill="#474747"/>
<rect x="121.742" width="5.96774" height="5.96774" fill="#474747"/>
<rect x="142.032" width="5.96774" height="5.96774" fill="#474747"/>
<rect x="121.742" y="20.2903" width="5.96774" height="5.96774" fill="#474747"/>
<rect x="142.032" y="20.2903" width="5.96774" height="5.96774" fill="#474747"/>
<rect x="81.1614" y="40.5806" width="5.96774" height="5.96774" fill="#474747"/>
<rect x="101.452" y="40.5806" width="5.96774" height="5.96774" fill="#474747"/>
<rect x="81.1614" y="60.871" width="5.96774" height="5.96774" fill="#474747"/>
<rect x="101.452" y="60.871" width="5.96774" height="5.96774" fill="#474747"/>
<rect x="121.742" y="40.5806" width="5.96774" height="5.96774" fill="#474747"/>
<rect x="142.032" y="40.5806" width="5.96774" height="5.96774" fill="#474747"/>
<rect x="121.742" y="60.871" width="5.96774" height="5.96774" fill="#474747"/>
<rect x="142.032" y="60.871" width="5.96774" height="5.96774" fill="#474747"/>
<rect y="81.1613" width="5.96774" height="5.96774" fill="#474747"/>
<rect x="20.2903" y="81.1613" width="5.96774" height="5.96774" fill="#474747"/>
<rect y="101.452" width="5.96774" height="5.96774" fill="#474747"/>
<rect x="20.2903" y="101.452" width="5.96774" height="5.96774" fill="#474747"/>
<rect x="40.5808" y="81.1613" width="5.96774" height="5.96774" fill="#474747"/>
<rect x="60.8708" y="81.1613" width="5.96774" height="5.96774" fill="#474747"/>
<rect x="40.5808" y="101.452" width="5.96774" height="5.96774" fill="#474747"/>
<rect x="60.8708" y="101.452" width="5.96774" height="5.96774" fill="#474747"/>
<rect y="121.742" width="5.96774" height="5.96774" fill="#474747"/>
<rect x="20.2903" y="121.742" width="5.96774" height="5.96774" fill="#474747"/>
<rect y="142.032" width="5.96774" height="5.96774" fill="#474747"/>
<rect x="20.2903" y="142.032" width="5.96774" height="5.96774" fill="#474747"/>
<rect x="40.5808" y="121.742" width="5.96774" height="5.96774" fill="#474747"/>
<rect x="60.8708" y="121.742" width="5.96774" height="5.96774" fill="#474747"/>
<rect x="40.5808" y="142.032" width="5.96774" height="5.96774" fill="#474747"/>
<rect x="60.8708" y="142.032" width="5.96774" height="5.96774" fill="#474747"/>
<rect x="81.1614" y="81.1613" width="5.96774" height="5.96774" fill="#474747"/>
<rect x="101.452" y="81.1613" width="5.96774" height="5.96774" fill="#474747"/>
<rect x="81.1614" y="101.452" width="5.96774" height="5.96774" fill="#474747"/>
<rect x="101.452" y="101.452" width="5.96774" height="5.96774" fill="#474747"/>
<rect x="121.742" y="81.1613" width="5.96774" height="5.96774" fill="#474747"/>
<rect x="142.032" y="81.1613" width="5.96774" height="5.96774" fill="#474747"/>
<rect x="121.742" y="101.452" width="5.96774" height="5.96774" fill="#474747"/>
<rect x="142.032" y="101.452" width="5.96774" height="5.96774" fill="#474747"/>
<rect x="81.1614" y="121.742" width="5.96774" height="5.96774" fill="#474747"/>
<rect x="101.452" y="121.742" width="5.96774" height="5.96774" fill="#474747"/>
<rect x="81.1614" y="142.032" width="5.96774" height="5.96774" fill="#474747"/>
<rect x="101.452" y="142.032" width="5.96774" height="5.96774" fill="#474747"/>
<rect x="121.742" y="121.742" width="5.96774" height="5.96774" fill="#474747"/>
<rect x="142.032" y="121.742" width="5.96774" height="5.96774" fill="#474747"/>
<rect x="121.742" y="142.032" width="5.96774" height="5.96774" fill="#474747"/>
<rect x="142.032" y="142.032" width="5.96774" height="5.96774" fill="#474747"/>
</svg>
