<svg width="14" height="14" viewBox="0 0 14 14" fill="none" xmlns="http://www.w3.org/2000/svg">
<g clip-path="url(#clip0)">
<path d="M13.8511 5.68917L7.21491 0.83027C7.08694 0.73659 6.91309 0.73659 6.78518 0.83027L0.148903 5.68917C-0.0131912 5.80787 -0.04841 6.03548 0.0702892 6.19757C0.188988 6.35967 0.416625 6.39483 0.578692 6.27619L7.00002 1.57459L13.4213 6.27616C13.4861 6.3236 13.5613 6.34643 13.6359 6.34643C13.7479 6.34643 13.8585 6.29489 13.9297 6.19755C14.0484 6.03548 14.0132 5.80787 13.8511 5.68917Z" fill="#FFE08F"/>
<path d="M12.0928 6.35864C11.8919 6.35864 11.729 6.5215 11.729 6.7224V12.5124H8.81903V9.35185C8.81903 8.34889 8.00303 7.53295 7.00012 7.53295C5.99721 7.53295 5.18121 8.34894 5.18121 9.35185V12.5124H2.27121V6.72242C2.27121 6.52153 2.10832 6.35867 1.90746 6.35867C1.70659 6.35867 1.5437 6.52153 1.5437 6.72242V12.8762C1.5437 13.0771 1.70659 13.24 1.90746 13.24H5.54497C5.73626 13.24 5.89281 13.0922 5.9073 12.9045C5.90817 12.896 5.90872 12.8867 5.90872 12.8762V9.35188C5.90872 8.75007 6.39831 8.26048 7.00012 8.26048C7.60193 8.26048 8.09152 8.7501 8.09152 9.35188V12.8762C8.09152 12.8867 8.09207 12.8958 8.09294 12.9042C8.10727 13.092 8.26387 13.24 8.45527 13.24H12.0928C12.2937 13.24 12.4565 13.0771 12.4565 12.8762V6.72242C12.4565 6.5215 12.2937 6.35864 12.0928 6.35864Z" fill="#FFE08F"/>
</g>
<defs>
<clipPath id="clip0">
<rect width="14" height="14" fill="white"/>
</clipPath>
</defs>
</svg>
