<svg width="16" height="16" viewBox="0 0 16 16" fill="none" xmlns="http://www.w3.org/2000/svg">
<path d="M11.6689 0H4.33105C1.94287 0 0 1.94287 0 4.33105V11.669C0 14.0571 1.94287 16 4.33105 16H11.669C14.0571 16 16 14.0571 16 11.669V4.33105C16 1.94287 14.0571 0 11.6689 0V0ZM15.062 11.669C15.062 13.5399 13.5399 15.062 11.6689 15.062H4.33105C2.46008 15.062 0.937987 13.5399 0.937987 11.669V4.33105C0.937987 2.46008 2.46008 0.937987 4.33105 0.937987H11.669C13.5399 0.937987 15.062 2.46008 15.062 4.33105V11.669Z" fill="white"/>
<path d="M7.99987 3.62512C5.58752 3.62512 3.625 5.58764 3.625 7.99999C3.625 10.4123 5.58752 12.3749 7.99987 12.3749C10.4122 12.3749 12.3747 10.4123 12.3747 7.99999C12.3747 5.58764 10.4122 3.62512 7.99987 3.62512V3.62512ZM7.99987 11.4369C6.10485 11.4369 4.56299 9.89513 4.56299 7.99999C4.56299 6.10498 6.10485 4.56311 7.99987 4.56311C9.89501 4.56311 11.4368 6.10498 11.4368 7.99999C11.4368 9.89513 9.89501 11.4369 7.99987 11.4369V11.4369Z" fill="white"/>
<path d="M12.4797 2.07141C11.7668 2.07141 11.187 2.65137 11.187 3.36413C11.187 4.07702 11.7668 4.65698 12.4797 4.65698C13.1926 4.65698 13.7726 4.07702 13.7726 3.36413C13.7726 2.65124 13.1926 2.07141 12.4797 2.07141ZM12.4797 3.71887C12.2842 3.71887 12.125 3.55969 12.125 3.36413C12.125 3.16845 12.2842 3.0094 12.4797 3.0094C12.6754 3.0094 12.8346 3.16845 12.8346 3.36413C12.8346 3.55969 12.6754 3.71887 12.4797 3.71887Z" fill="white"/>
</svg>
