<svg width="495" height="77" viewBox="0 0 495 77" fill="none" xmlns="http://www.w3.org/2000/svg">
<g clip-path="url(#clip0)">
<path d="M437.301 50.9593H396.195C388.907 50.9593 382.998 56.7883 382.998 63.979C382.998 71.1698 388.907 76.9995 396.195 76.9995H427.965L437.301 50.9593Z" fill="#FF0000"/>
<path d="M462.386 50.9593H451.28H447.824H446.771L437.435 77.0001H439.67H462.387C469.676 77.0001 475.584 71.1697 475.584 63.9797C475.583 56.7883 469.675 50.9593 462.386 50.9593Z" fill="#FF0000"/>
<path d="M41.3239 70.7988L54.5055 48.302L52.0756 44.1608L46.6224 34.8479H46.6204L39.1522 47.5901L33.4402 57.3373H26.528L35.4408 42.1271L44.3528 26.9156L53.2676 42.1298L62.1797 57.3373L51.6779 57.342L43.7921 70.7988H44.3542H85.8349L65.0956 35.4004L44.3542 0L23.6155 35.3977L2.87415 70.7988H41.3239Z" fill="#50A727"/>
<path d="M66.6607 9.24945C61.0493 6.05597 55.0237 4.20932 48.968 3.60345L58.7674 20.3253C59.1241 20.5131 59.4821 20.7022 59.834 20.9021C70.0551 26.7197 75.6124 37.4787 75.1948 48.3648L84.9962 65.0907C94.2396 44.8457 86.5935 20.5907 66.6607 9.24945Z" fill="#50A727"/>
<path d="M5.96121 25.2799C-1.39122 37.8248 -1.72396 52.4697 3.75938 64.7876L13.6772 47.8672C13.545 42.4806 14.8582 36.9994 17.7857 32.0059C20.7112 27.0151 24.8705 23.1516 29.6678 20.5748L39.5856 3.64897C26.0104 5.13088 13.3095 12.7336 5.96121 25.2799Z" fill="#50A727"/>
<path d="M103.942 73.0141C102.772 75.901 101.774 76.9999 99.5484 76.9999C98.9617 76.9999 98.377 76.9418 97.819 76.7399V74.4873C98.288 74.6318 98.785 74.8331 99.2834 74.8331C100.31 74.8331 100.866 74.3697 101.336 73.4721L102.36 70.9318L96.3531 56.0728H99.1657L103.591 68.3009H103.65L107.897 56.0728H110.533L103.942 73.0141Z" fill="#50A727"/>
<path d="M115.073 68.9071H120.405C121.987 68.9071 122.954 68.0135 122.954 66.5694C122.954 65.1807 122.016 64.1986 119.967 64.1986H115.073V68.9071ZM119.585 62.1169C121.49 62.1169 122.281 61.4246 122.281 60.1223C122.281 58.8808 121.49 58.1865 119.498 58.1865H115.075V62.1169H119.585ZM112.642 56.0737H119.644C123.043 56.0737 124.802 57.2051 124.802 59.7184C124.802 61.3064 124.01 62.3175 122.603 62.9544V62.9808C124.42 63.4718 125.474 64.6295 125.474 66.6241C125.474 69.1664 123.571 71.0171 120.874 71.0171H112.642V56.0737Z" fill="#50A727"/>
<path d="M138.889 62.1169C138.742 59.7765 137.016 57.8974 134.525 57.8974C131.948 57.8974 130.336 59.8035 130.189 62.1169H138.889ZM141.293 66.2782C140.619 69.6021 138.245 71.365 134.818 71.365C129.986 71.365 127.7 68.0411 127.554 63.5035C127.554 58.995 130.542 55.7272 134.674 55.7272C140.032 55.7272 141.673 60.6694 141.528 64.2843H130.189C130.103 66.8834 131.596 69.1975 134.904 69.1975C136.986 69.1975 138.393 68.2424 138.833 66.2776H141.293V66.2782Z" fill="#50A727"/>
<path d="M151.221 57.8974C147.854 57.8974 146.591 60.7599 146.591 63.5339C146.591 66.4538 147.941 69.1975 151.369 69.1975C154.767 69.1975 155.909 66.3343 155.909 63.4171C155.91 60.6133 154.444 57.8974 151.221 57.8974ZM144.193 56.0737H146.682V58.098H146.74C147.561 56.4519 149.465 55.7279 151.574 55.7279C156.231 55.7279 158.547 59.3705 158.547 63.5906C158.547 67.8392 156.26 71.3656 151.634 71.3656C150.108 71.3656 147.822 70.7874 146.74 69.0232H146.682V76.7408H144.193V56.0737Z" fill="#50A727"/>
<path d="M171.994 62.1169C171.847 59.7765 170.12 57.8974 167.628 57.8974C165.052 57.8974 163.441 59.8035 163.293 62.1169H171.994ZM174.395 66.2782C173.721 69.6021 171.349 71.365 167.92 71.365C163.088 71.365 160.802 68.0411 160.653 63.5035C160.653 58.995 163.644 55.7272 167.776 55.7272C173.139 55.7272 174.777 60.6694 174.632 64.2843H163.293C163.205 66.8834 164.697 69.1975 168.011 69.1975C170.088 69.1975 171.495 68.2424 171.933 66.2776H174.395V66.2782Z" fill="#50A727"/>
<path d="M177.207 71.0192V56.0737H179.699V62.0311H187.255V56.0737H189.746V71.0192H187.255V64.1972H179.699V71.0192H177.207Z" fill="#50A727"/>
<path d="M193.494 71.0192V56.0737H195.987V62.0311H203.543V56.0737H206.032V71.0192H203.543V64.1972H195.987V71.0192H193.494Z" fill="#50A727"/>
<path d="M216.314 69.1977C218.921 69.1977 221.03 67.1721 221.03 63.5578C221.03 59.9476 218.921 57.8949 216.314 57.8949C213.704 57.8949 211.596 59.9469 211.596 63.5578C211.596 67.1721 213.705 69.1977 216.314 69.1977ZM216.314 55.7288C221.121 55.7288 223.665 59.1688 223.665 63.5605C223.665 67.9238 221.12 71.3659 216.314 71.3659C211.508 71.3659 208.962 67.9252 208.962 63.5605C208.962 59.1688 211.508 55.7288 216.314 55.7288Z" fill="#50A727"/>
<path d="M240.278 55.7304C243.823 55.7304 245.934 57.3758 245.934 59.9499C245.934 61.5108 244.965 62.4335 243.444 62.9556V63.0143C245.2 63.5054 246.43 64.6023 246.43 66.6259C246.43 69.689 243.589 71.3655 240.014 71.3655C235.797 71.3655 233.778 69.4878 233.598 66.3058H236.118C236.265 68.3881 237.788 69.3696 240.015 69.3696C242.273 69.3696 243.852 68.3881 243.852 66.684C243.852 65.2386 242.943 64.2531 240.63 64.2531H238.55V62.1444H240.222C241.978 62.1444 243.413 61.7108 243.413 60.0627C243.413 58.6753 242.301 57.7216 240.25 57.7216C238.347 57.7216 236.707 58.3876 236.442 60.4099H233.92C234.212 56.9705 237.143 55.7304 240.278 55.7304Z" fill="#50A727"/>
<path d="M258.763 63.3011C256.83 64.7182 251.207 63.3295 251.207 67.0005C251.207 68.6189 252.613 69.1984 254.137 69.1984C257.416 69.1984 258.763 67.2031 258.763 65.8158V63.3011ZM262.807 70.9606C262.368 71.22 261.752 71.3652 261.02 71.3652C259.729 71.3652 258.911 70.6729 258.911 69.0518C257.534 70.6722 255.689 71.3652 253.58 71.3652C250.826 71.3652 248.568 70.1798 248.568 67.1727C248.568 63.7942 251.118 63.0418 253.695 62.5791C256.42 62.03 258.794 62.2603 258.794 60.3819C258.794 58.2137 256.976 57.8969 255.425 57.8969C253.315 57.8969 251.764 58.5325 251.644 60.7277H249.154C249.303 57.0277 252.172 55.7288 255.57 55.7288C258.294 55.7288 261.254 56.334 261.254 59.8341V67.5192C261.254 68.6776 261.254 69.1977 262.044 69.1977C262.279 69.1977 262.542 69.1383 262.807 69.0511V70.9606Z" fill="#50A727"/>
<path d="M280.379 57.8974C277.014 57.8974 275.754 60.7599 275.754 63.5339C275.754 66.4538 277.101 69.1975 280.529 69.1975C283.929 69.1975 285.071 66.3343 285.071 63.4171C285.071 60.6133 283.603 57.8974 280.379 57.8974ZM273.351 56.0737H275.843V58.098H275.901C276.722 56.4519 278.624 55.7279 280.735 55.7279C285.394 55.7279 287.709 59.3705 287.709 63.5906C287.709 67.8392 285.421 71.3656 280.793 71.3656C279.268 71.3656 276.982 70.7874 275.901 69.0232H275.843V76.7408H273.351V56.0737Z" fill="#50A727"/>
<path d="M296.232 73.0141C295.06 75.901 294.064 76.9999 291.836 76.9999C291.252 76.9999 290.665 76.9418 290.109 76.7399V74.4873C290.575 74.6318 291.074 74.8331 291.572 74.8331C292.597 74.8331 293.155 74.3697 293.623 73.4721L294.648 70.9318L288.643 56.0728H291.455L295.879 68.3009H295.937L300.184 56.0728H302.822L296.232 73.0141Z" fill="#50A727"/>
<path d="M315.946 71.0189H313.454V58.2423H307.978L307.654 66.2185C307.507 69.9193 305.841 71.335 303.612 71.335C302.88 71.335 302.353 71.2175 301.883 71.0182V68.9926C302.352 69.1689 302.763 69.2269 303.143 69.2269C304.257 69.2269 305.136 68.6204 305.223 65.9308L305.577 56.0728H315.946V71.0182H315.946V71.0189Z" fill="#50A727"/>
<path d="M327.489 50.6127H330.127V53.6184H327.489V50.6127ZM321.979 50.6127H324.617V53.6184H321.979V50.6127ZM330.213 62.1167C330.066 59.7743 328.339 57.8959 325.848 57.8959C323.269 57.8959 321.66 59.8054 321.512 62.1167H330.213ZM332.614 66.2781C331.944 69.6033 329.568 71.3635 326.141 71.3635C321.309 71.3635 319.02 68.039 318.875 63.5034C318.875 58.9949 321.864 55.7284 325.993 55.7284C331.353 55.7284 332.997 60.6679 332.853 64.2829H321.512C321.423 66.8853 322.919 69.1953 326.23 69.1953C328.308 69.1953 329.715 68.2409 330.156 66.2774H332.614V66.2781Z" fill="#50A727"/>
<path d="M349.343 71.0192V59.1693H349.253L344.772 71.0192H342.489L338.004 59.1693H337.917V71.0192H335.427V56.0737H339.03L343.629 68.2735H343.688L348.288 56.0737H351.834V71.0192H349.343Z" fill="#50A727"/>
<path d="M123.066 30.685L117.615 15.0452H117.492L111.862 30.685H123.066ZM112.766 4.53876H122.524L138.697 47.1576H128.827L125.548 37.669H109.377L105.985 47.1576H96.3531L112.766 4.53876Z" fill="#0F1012"/>
<path d="M162.146 39.8763C165.846 39.8763 169.174 38.6882 169.174 34.2634C169.174 29.9075 166.448 28.1798 162.331 28.1798H151.968V39.8763H162.146ZM161.604 21.7921C164.996 21.7921 167.417 20.2994 167.417 16.7162C167.417 12.7183 164.267 11.8186 160.875 11.8186H151.968V21.7921H161.604ZM142.461 4.53941H162.816C171.052 4.53941 176.623 7.16281 176.623 15.1019C176.623 19.3416 174.569 22.1481 170.749 24.0015C176.077 25.4915 178.681 29.4915 178.681 34.8072C178.681 43.4582 171.23 47.1576 163.418 47.1576H142.46L142.461 4.53941Z" fill="#0F1012"/>
<path d="M194.684 12.4191H181.72V4.53876H217.152V12.4191H204.191V47.1576H194.684V12.4191Z" fill="#0F1012"/>
<path d="M240.421 40.29C248.964 40.29 252.171 33.1324 252.171 26.0308C252.171 18.5645 248.962 11.4049 240.421 11.4049C231.876 11.4049 228.669 18.5645 228.669 26.0308C228.669 33.1324 231.876 40.29 240.421 40.29ZM240.421 3.52185C253.752 3.52185 261.684 13.3711 261.684 26.0308C261.684 38.3272 253.752 48.1758 240.421 48.1758C227.087 48.1758 219.156 38.3265 219.156 26.0308C219.156 13.3704 227.087 3.52185 240.421 3.52185Z" fill="#0F1012"/>
<path d="M287.555 40.29C296.096 40.29 299.305 33.1324 299.305 26.0308C299.305 18.5645 296.095 11.4049 287.555 11.4049C279.016 11.4049 275.805 18.5645 275.805 26.0308C275.805 33.1324 279.016 40.29 287.555 40.29ZM287.555 3.52185C300.88 3.52185 308.823 13.3711 308.823 26.0308C308.823 38.3272 300.879 48.1758 287.555 48.1758C274.225 48.1758 266.292 38.3265 266.292 26.0308C266.292 13.3704 274.225 3.52185 287.555 3.52185Z" fill="#0F1012"/>
<path d="M351.835 47.1576H342.323V12.4191H324.811V47.1576H315.307V4.53876H351.835V47.1576Z" fill="#0F1012"/>
<path d="M379.582 40.29C388.12 40.29 391.338 33.1324 391.338 26.0308C391.338 18.5645 388.12 11.4049 379.582 11.4049C371.037 11.4049 367.823 18.5645 367.823 26.0308C367.823 33.1324 371.036 40.29 379.582 40.29ZM379.582 3.52185C392.91 3.52185 400.843 13.3711 400.843 26.0308C400.843 38.3272 392.91 48.1758 379.582 48.1758C366.257 48.1758 358.318 38.3265 358.318 26.0308C358.318 13.3704 366.257 3.52185 379.582 3.52185Z" fill="#0F1012"/>
<path d="M416.839 24.5973H424.225C428.589 24.5973 432.593 23.6415 432.593 18.2096C432.593 12.7771 428.589 11.8186 424.225 11.8186H416.839V24.5973ZM407.328 4.53808H426.834C437.677 4.53808 441.796 11.2871 441.796 18.2096C441.796 25.1342 437.676 31.8798 426.834 31.8798H416.837V47.1562H407.327L407.328 4.53808Z" fill="#0F1012"/>
<path d="M465.368 30.685L459.91 15.0452H459.792L454.157 30.685H465.368ZM455.067 4.53876H464.815L480.991 47.1576H471.114L467.848 37.669H451.675L448.279 47.1576H438.649L455.067 4.53876Z" fill="#0F1012"/>
<path d="M488.39 9.48395C488.654 9.48395 488.906 9.47585 489.143 9.45896C489.381 9.4414 489.59 9.39412 489.773 9.31374C489.959 9.23336 490.105 9.11043 490.216 8.9463C490.325 8.78082 490.379 8.55185 490.379 8.25398C490.379 8.00542 490.332 7.80481 490.231 7.65892C490.135 7.50964 490.009 7.39617 489.852 7.31647C489.695 7.23609 489.517 7.18206 489.316 7.15436C489.113 7.12532 488.915 7.11046 488.716 7.11046H487.161V9.4853H488.39V9.48395ZM488.909 6.1716C489.808 6.1716 490.474 6.34721 490.908 6.69912C491.34 7.05237 491.558 7.58799 491.558 8.30396C491.558 8.97737 491.367 9.46977 490.985 9.78317C490.605 10.0932 490.133 10.2789 489.567 10.3357L491.73 13.6332H490.465L488.407 10.4228H487.161V13.6332H485.982V6.1716H488.909ZM483.568 12.0547C483.839 12.7213 484.213 13.2995 484.695 13.7885C485.173 14.2782 485.737 14.6625 486.389 14.9408C487.043 15.2205 487.748 15.3596 488.512 15.3596C489.263 15.3596 489.96 15.2205 490.608 14.9408C491.252 14.6625 491.816 14.2782 492.296 13.7885C492.774 13.2995 493.15 12.7213 493.421 12.0547C493.693 11.3887 493.829 10.6626 493.829 9.87638C493.829 9.11313 493.694 8.40325 493.421 7.74199C493.15 7.08277 492.776 6.50999 492.296 6.02503C491.816 5.54142 491.254 5.15979 490.608 4.88016C489.962 4.60256 489.263 4.46139 488.512 4.46139C487.75 4.46139 487.042 4.60256 486.389 4.88016C485.738 5.15979 485.175 5.54142 484.695 6.02503C484.214 6.50999 483.84 7.08277 483.568 7.74199C483.297 8.40325 483.159 9.11246 483.159 9.87638C483.16 10.6626 483.297 11.388 483.568 12.0547ZM482.504 7.36645C482.851 6.59105 483.319 5.92034 483.915 5.35094C484.509 4.7829 485.202 4.33306 485.994 4.0102C486.783 3.68666 487.624 3.52185 488.512 3.52185C489.4 3.52185 490.238 3.68666 491.022 4.0102C491.807 4.33373 492.493 4.7829 493.082 5.35094C493.671 5.92034 494.138 6.59105 494.484 7.36645C494.831 8.1405 495.005 8.97805 495.005 9.87638C495.005 10.7997 494.831 11.6508 494.484 12.4309C494.138 13.209 493.671 13.8871 493.082 14.464C492.494 15.0394 491.807 15.4845 491.022 15.804C490.238 16.1228 489.4 16.2822 488.512 16.2822C487.624 16.2822 486.784 16.1228 485.994 15.804C485.202 15.4839 484.509 15.0388 483.915 14.464C483.321 13.8871 482.851 13.2097 482.504 12.4309C482.157 11.6508 481.983 10.7997 481.983 9.87638C481.983 8.97805 482.157 8.1405 482.504 7.36645Z" fill="#0F1012"/>
<path d="M392.219 73.5484C392.549 67.4499 398.593 66.0409 402.99 63.329C404.116 62.6515 405.133 61.9464 405.133 60.3483C405.133 58.9103 403.978 58.1525 402.551 58.1525C400.271 58.1525 399.282 59.6431 399.199 61.6749H394.747C395.049 57.1758 398.319 54.4112 402.798 54.4112C406.508 54.4112 409.804 56.0106 409.804 59.995C409.804 62.5428 408.43 64.1699 406.562 65.4972C405.024 66.5812 402.414 67.8565 400.655 68.642C399.995 68.9399 399.363 69.2648 398.704 69.591V69.6437H408.402L407.496 73.5477H392.219V73.5484Z" fill="white"/>
<path d="M418.076 73.4258L418.983 69.2246H410.163L410.96 65.5374L421.593 54.5325H426.731L424.423 65.4834H426.895L426.127 69.2246H423.628L422.748 73.4258H418.076ZM414.834 65.4847H419.835L421.235 59.0329H421.181L414.834 65.4847Z" fill="white"/>
<path d="M449.839 58.679L450.718 54.5325H464.895L464.016 58.679C462.037 60.198 460.334 62.2595 458.988 64.2095C457.091 67.0288 455.416 70.4708 454.894 73.4258H449.674C450.552 69.4955 452.833 65.5097 455.388 62.3925C456.35 61.0646 457.998 59.5192 458.933 58.7337V58.679H449.839Z" fill="white"/>
</g>
<defs>
<clipPath id="clip0">
<rect width="495" height="77" fill="white"/>
</clipPath>
</defs>
</svg>
