<svg width="12" height="12" viewBox="0 0 12 12" fill="none" xmlns="http://www.w3.org/2000/svg">
<path d="M11.8281 1.92393L10.0757 0.171217C9.81767 -0.0865019 9.36092 -0.0490776 9.05642 0.255138L8.09189 1.21995L10.7796 3.90743L11.7439 2.94262C12.049 2.63868 12.0861 2.18165 11.8281 1.92393ZM7.64449 1.66763L10.332 4.35511L3.9233 10.7643C3.89382 10.7938 3.81245 10.8755 3.69791 10.9044C3.68458 10.9104 3.67125 10.916 3.65765 10.9206L0.312971 11.9863C0.219409 12.0158 0.125281 11.9971 0.0643242 11.9356C0.00336754 11.8746 -0.0159118 11.7805 0.0135742 11.6869L1.07961 8.34281C1.08414 8.32891 1.08953 8.31559 1.09577 8.30226C1.12497 8.18772 1.20634 8.10635 1.23611 8.07658L7.64449 1.66763ZM3.09656 10.5577L1.44194 8.90304L0.998236 10.2965L1.70335 11.0017L3.09656 10.5577ZM7.54101 2.73593C7.44574 2.64067 7.29179 2.64067 7.19653 2.73593L2.20064 7.73211C2.10538 7.82709 2.10538 7.9816 2.20064 8.07658C2.29562 8.17156 2.44985 8.17156 2.54512 8.07658L7.54101 3.08041C7.63627 2.98514 7.63627 2.83091 7.54101 2.73593Z" fill="#FFE08F"/>
</svg>
