<svg width="22" height="22" viewBox="0 0 22 22" fill="none" xmlns="http://www.w3.org/2000/svg">
<path d="M21.4081 15.1192L16.2141 13.3879C15.9607 13.3035 15.6825 13.3407 15.4602 13.4889L13.2571 14.9576C10.9239 13.8452 8.1549 11.0761 7.04241 8.74291L8.51115 6.53976C8.65935 6.31751 8.69663 6.03929 8.61214 5.78588L6.88083 0.591937C6.76298 0.23846 6.43218 0 6.0596 0H2.59697C1.165 0 0 1.165 0 2.59697C0 7.38233 2.1638 12.2907 5.93657 16.0634C9.70927 19.8362 14.6177 22 19.403 22C20.835 22 22 20.835 22 19.403V15.9404C22 15.5678 21.7615 15.237 21.4081 15.1192ZM20.2687 19.403C20.2687 19.8804 19.8804 20.2687 19.403 20.2687C10.3194 20.2687 1.73132 11.6806 1.73132 2.59697C1.73132 2.11965 2.11965 1.73132 2.59697 1.73132H5.43564L6.83581 5.93172L5.33938 8.17643C5.18125 8.41362 5.15003 8.71342 5.25593 8.97808C5.83315 10.4213 6.9738 12.0387 8.46752 13.5325C9.96135 15.0263 11.5788 16.1669 13.022 16.7441C13.2866 16.85 13.5864 16.8188 13.8236 16.6607L16.0683 15.1642L20.2687 16.5643V19.403V19.403Z" fill="#FFE08F"/>
</svg>
