<svg width="15" height="25" viewBox="0 0 15 25" fill="none" xmlns="http://www.w3.org/2000/svg">
<path d="M7.35359 0C3.29876 0 0 3.29876 0 7.35359V17.6464C0 21.7012 3.29876 25 7.35359 25C11.4084 25 14.7072 21.7012 14.7072 17.6464V7.35359C14.7072 3.29876 11.4084 0 7.35359 0ZM13.2072 17.6464C13.2072 20.874 10.5812 23.5001 7.35359 23.5001C4.12598 23.5001 1.49994 20.874 1.49994 17.6464V7.35359C1.49994 4.12598 4.12598 1.49994 7.35359 1.49994C10.5812 1.49994 13.2072 4.12598 13.2072 7.35359V17.6464Z" fill="#333333"/>
<path d="M7.35397 4.97314C6.9397 4.97314 6.604 5.30884 6.604 5.72311V9.17503C6.604 9.58912 6.9397 9.925 7.35397 9.925C7.76806 9.925 8.10394 9.58912 8.10394 9.17503V5.72311C8.10394 5.30884 7.76825 4.97314 7.35397 4.97314Z" fill="#333333"/>
</svg>
