<svg width="26" height="27" viewBox="0 0 26 27" fill="none" xmlns="http://www.w3.org/2000/svg">
<path d="M25.7751 25.6231L19.4553 19.0616C21.1506 17.0381 22.177 14.398 22.177 11.5124C22.177 5.16053 17.2007 0 11.0885 0C4.9705 0 0 5.16652 0 11.5124C0 17.8583 4.97627 23.0248 11.0885 23.0248C13.8678 23.0248 16.4107 21.9592 18.3597 20.1991L24.6795 26.7605C24.8295 26.9162 25.0313 27 25.2273 27C25.4234 27 25.6252 26.9222 25.7751 26.7605C26.075 26.4492 26.075 25.9344 25.7751 25.6231ZM1.55112 11.5124C1.55112 6.05255 5.82967 1.61641 11.0827 1.61641C16.3415 1.61641 20.6143 6.05854 20.6143 11.5124C20.6143 16.9663 16.3415 21.4144 11.0827 21.4144C5.82967 21.4144 1.55112 16.9723 1.55112 11.5124Z" fill="#3E3E3E"/>
</svg>
