<?xml version="1.0" encoding="UTF-8"?>
<svg xmlns="http://www.w3.org/2000/svg" xmlns:xlink="http://www.w3.org/1999/xlink" width="40pt" height="40pt" viewBox="0 0 40 40" version="1.1">
<g id="surface1">
<path style=" stroke:none;fill-rule:nonzero;fill:rgb(100%,87.843137%,56.078431%);fill-opacity:1;" d="M 19.027344 30.691406 L 20.257812 30.691406 L 20.257812 33.148438 L 19.027344 33.148438 Z M 19.027344 30.691406 "/>
<path style=" stroke:none;fill-rule:nonzero;fill:rgb(100%,87.843137%,56.078431%);fill-opacity:1;" d="M 34.375 38.058594 L 34.375 29.714844 L 35.066406 29.03125 C 35.40625 28.683594 35.601562 28.214844 35.601562 27.726562 L 35.601562 27.621094 C 35.601562 26.605469 34.78125 25.78125 33.761719 25.78125 L 33.65625 25.78125 C 33.167969 25.78125 32.699219 25.976562 32.351562 26.316406 L 31.230469 27.441406 C 31.117188 27.558594 30.957031 27.621094 30.796875 27.621094 L 30.691406 27.621094 C 30.351562 27.621094 30.078125 27.351562 30.078125 27.007812 L 30.078125 26.902344 C 30.078125 26.742188 30.140625 26.582031 30.257812 26.472656 L 31.382812 25.347656 C 31.722656 25 31.917969 24.53125 31.917969 24.042969 L 31.917969 23.941406 C 31.917969 22.996094 31.199219 22.210938 30.257812 22.121094 L 25.097656 19.539062 C 25.859375 18.652344 26.417969 17.605469 26.722656 16.484375 L 28.445312 15.617188 C 29.074219 15.3125 29.464844 14.667969 29.464844 13.972656 L 29.464844 12.890625 C 29.464844 11.871094 28.640625 11.050781 27.621094 11.050781 L 27.007812 11.050781 L 27.007812 7.980469 C 27.003906 4.253906 23.980469 1.234375 20.257812 1.226562 L 19.027344 1.226562 C 15.304688 1.234375 12.285156 4.253906 12.277344 7.980469 L 12.277344 11.050781 L 11.664062 11.050781 C 10.644531 11.050781 9.820312 11.871094 9.820312 12.890625 L 9.820312 13.972656 C 9.820312 14.667969 10.210938 15.3125 10.839844 15.617188 L 12.5625 16.484375 C 12.871094 17.605469 13.425781 18.652344 14.1875 19.539062 L 8.644531 22.308594 C 6.347656 23.445312 4.902344 25.789062 4.910156 28.347656 L 4.910156 38.058594 Z M 23.578125 36.832031 L 28.925781 31.488281 C 29.039062 31.367188 29.199219 31.304688 29.359375 31.304688 L 32.023438 31.304688 C 32.4375 31.304688 32.828125 31.167969 33.148438 30.914062 L 33.148438 36.832031 Z M 30.691406 23.941406 L 30.691406 24.042969 C 30.691406 24.203125 30.628906 24.363281 30.511719 24.476562 L 29.386719 25.601562 C 29.046875 25.949219 28.851562 26.417969 28.851562 26.902344 L 28.851562 27.007812 C 28.851562 28.027344 29.671875 28.851562 30.691406 28.851562 L 30.796875 28.851562 C 31.285156 28.851562 31.753906 28.65625 32.101562 28.3125 L 33.222656 27.191406 C 33.335938 27.070312 33.496094 27.007812 33.65625 27.007812 L 33.761719 27.007812 C 34.101562 27.007812 34.375 27.28125 34.375 27.621094 L 34.375 27.726562 C 34.375 27.886719 34.3125 28.046875 34.195312 28.160156 L 32.457031 29.898438 C 32.34375 30.015625 32.183594 30.078125 32.023438 30.078125 L 29.359375 30.078125 C 28.871094 30.078125 28.402344 30.273438 28.054688 30.613281 L 22.042969 36.628906 C 21.777344 36.898438 21.339844 36.898438 21.074219 36.628906 C 20.800781 36.363281 20.800781 35.921875 21.074219 35.660156 L 27.085938 29.644531 C 27.425781 29.296875 27.621094 28.828125 27.621094 28.339844 L 27.621094 25.675781 C 27.621094 25.515625 27.683594 25.355469 27.804688 25.246094 L 29.542969 23.507812 C 29.652344 23.386719 29.8125 23.324219 29.972656 23.324219 L 30.078125 23.324219 C 30.417969 23.324219 30.691406 23.597656 30.691406 23.941406 Z M 21.464844 23.324219 L 20.820312 22.550781 C 21.101562 22.460938 21.371094 22.335938 21.625 22.183594 L 23.3125 21.101562 C 23.617188 20.90625 23.910156 20.6875 24.191406 20.453125 L 25.835938 21.273438 L 22.726562 24.832031 L 21.484375 23.347656 L 21.484375 23.324219 Z M 19.027344 23.792969 L 19.644531 23.0625 L 20.257812 23.792969 L 20.257812 28.238281 L 19.027344 28.238281 Z M 17.800781 23.324219 L 17.800781 23.347656 L 16.558594 24.832031 L 13.449219 21.273438 L 15.09375 20.453125 C 15.375 20.6875 15.667969 20.90625 15.972656 21.101562 L 17.660156 22.183594 C 17.914062 22.335938 18.183594 22.460938 18.464844 22.550781 L 17.824219 23.324219 Z M 27.621094 12.277344 C 27.964844 12.277344 28.238281 12.550781 28.238281 12.890625 L 28.238281 13.972656 C 28.238281 14.207031 28.105469 14.417969 27.894531 14.523438 L 26.96875 14.984375 C 26.988281 14.78125 27.007812 14.578125 27.007812 14.371094 L 27.007812 12.277344 Z M 19.027344 2.457031 L 20.257812 2.457031 C 23.304688 2.457031 25.78125 4.933594 25.78125 7.980469 L 13.503906 7.980469 C 13.503906 4.933594 15.980469 2.457031 19.027344 2.457031 Z M 25.117188 9.207031 L 24.199219 10.359375 C 23.847656 10.796875 23.320312 11.050781 22.761719 11.050781 L 16.523438 11.050781 C 15.964844 11.050781 15.4375 10.796875 15.089844 10.359375 L 14.167969 9.207031 Z M 11.390625 14.523438 C 11.183594 14.417969 11.050781 14.207031 11.050781 13.972656 L 11.050781 12.890625 C 11.050781 12.550781 11.320312 12.277344 11.664062 12.277344 L 12.277344 12.277344 L 12.277344 14.371094 C 12.277344 14.578125 12.296875 14.78125 12.320312 14.984375 Z M 13.503906 10.34375 L 14.132812 11.125 C 14.710938 11.851562 15.589844 12.277344 16.523438 12.277344 L 22.761719 12.277344 C 23.695312 12.277344 24.574219 11.851562 25.152344 11.125 L 25.78125 10.34375 L 25.78125 14.371094 C 25.789062 16.683594 24.609375 18.832031 22.65625 20.066406 L 20.960938 21.144531 C 20.160156 21.652344 19.125 21.652344 18.324219 21.144531 L 16.628906 20.066406 C 14.675781 18.832031 13.496094 16.683594 13.503906 14.371094 Z M 6.136719 28.347656 C 6.132812 26.253906 7.316406 24.335938 9.195312 23.410156 L 12.3125 21.847656 L 16.585938 26.730469 L 17.800781 25.265625 L 17.800781 29.464844 L 21.484375 29.464844 L 21.484375 25.265625 L 22.699219 26.730469 L 26.972656 21.847656 L 28.632812 22.675781 L 26.933594 24.371094 C 26.589844 24.722656 26.394531 25.1875 26.394531 25.675781 L 26.394531 28.339844 C 26.394531 28.5 26.332031 28.660156 26.214844 28.773438 L 20.199219 34.785156 C 19.84375 35.148438 19.644531 35.636719 19.644531 36.140625 C 19.644531 36.378906 19.691406 36.613281 19.777344 36.832031 L 12.277344 36.832031 L 12.277344 30.078125 L 11.050781 30.078125 L 11.050781 36.832031 L 6.136719 36.832031 Z M 6.136719 28.347656 "/>
</g>
</svg>
