



<svg width="40pt" height="39pt" viewBox="0 0 40 39" fill="none" xmlns="http://www.w3.org/2000/svg">


<path d="M 39.359375 8.25 L 32.769531 14.675781 L 27.007812 12.667969 L 24.949219 7.050781 L 31.535156 0.625 C 27.214844 -0.785156 22.253906 0.1875 18.8125 3.542969 C 15.4375 6.835938 14.414062 11.554688 15.746094 15.710938 C 15.566406 15.851562 15.394531 16 15.226562 16.160156 L 1.699219 29.351562 C -0.566406 31.558594 -0.566406 35.136719 1.699219 37.34375 C 3.960938 39.550781 7.632812 39.550781 9.898438 37.34375 L 23.425781 24.152344 C 23.59375 23.992188 23.742188 23.824219 23.882812 23.648438 C 28.148438 24.945312 32.988281 23.949219 36.367188 20.65625 C 39.808594 17.300781 40.804688 12.464844 39.359375 8.25 Z M 39.359375 8.25 " fill="#FFE08F"/>

</svg>
