<svg width="387" height="387" viewBox="0 0 387 387" fill="none" xmlns="http://www.w3.org/2000/svg">
<mask id="mask0" mask-type="alpha" maskUnits="userSpaceOnUse" x="0" y="0" width="387" height="387">
<circle cx="193.633" cy="193.633" r="192.781" fill="#454A51"/>
</mask>
<g mask="url(#mask0)">
<rect x="-8.35889" y="0.852417" width="394.773" height="14.475" fill="#454A51"/>
<rect x="-8.35889" y="27.1707" width="394.773" height="14.475" fill="#454A51"/>
<rect x="-8.35895" y="54.8047" width="394.773" height="14.475" fill="#454A51"/>
<rect x="-8.35876" y="81.123" width="394.773" height="14.475" fill="#454A51"/>
<rect x="-8.35889" y="108.757" width="394.773" height="14.475" fill="#454A51"/>
<rect x="-8.35883" y="135.075" width="394.773" height="14.475" fill="#454A51"/>
<rect x="-8.35889" y="162.709" width="394.773" height="14.475" fill="#454A51"/>
<rect x="-8.35895" y="189.028" width="394.773" height="14.475" fill="#454A51"/>
<rect x="-8.35895" y="216.662" width="394.773" height="14.475" fill="#454A51"/>
<rect x="-8.35901" y="242.98" width="394.773" height="14.475" fill="#454A51"/>
<rect x="-8.35883" y="270.614" width="394.773" height="14.475" fill="#454A51"/>
<rect x="-8.35876" y="296.932" width="394.773" height="14.475" fill="#454A51"/>
<rect x="-8.35883" y="324.566" width="394.773" height="14.475" fill="#454A51"/>
<rect x="-8.35883" y="350.885" width="394.773" height="14.475" fill="#454A51"/>
<rect x="-8.35876" y="378.519" width="394.773" height="14.475" fill="#454A51"/>
</g>
</svg>
