<svg width="107" height="100" viewBox="0 0 107 100" fill="none" xmlns="http://www.w3.org/2000/svg">
<rect x="3" width="100" height="100" fill="#171717"/>
<path d="M25.5708 70.257C24.6428 70.257 23.7361 70.1556 22.8508 69.953C21.9761 69.7396 21.2561 69.457 20.6908 69.105L21.9068 66.353C22.4401 66.6623 23.0375 66.913 23.6988 67.105C24.3601 67.2863 24.9948 67.377 25.6028 67.377C26.1255 67.377 26.4988 67.329 26.7228 67.233C26.9468 67.1263 27.0588 66.9716 27.0588 66.769C27.0588 66.5343 26.9095 66.3583 26.6108 66.241C26.3228 66.1236 25.8428 65.9956 25.1708 65.857C24.3068 65.6756 23.5868 65.4836 23.0108 65.281C22.4348 65.0676 21.9335 64.7263 21.5068 64.257C21.0801 63.777 20.8668 63.1316 20.8668 62.321C20.8668 61.617 21.0641 60.977 21.4588 60.401C21.8535 59.825 22.4401 59.3716 23.2188 59.041C24.0081 58.7103 24.9628 58.545 26.0828 58.545C26.8508 58.545 27.6028 58.6303 28.3388 58.801C29.0855 58.961 29.7415 59.201 30.3068 59.521L29.1708 62.257C28.0721 61.7023 27.0321 61.425 26.0508 61.425C25.0801 61.425 24.5948 61.6596 24.5948 62.129C24.5948 62.353 24.7388 62.5236 25.0268 62.641C25.3148 62.7476 25.7895 62.865 26.4508 62.993C27.3041 63.153 28.0241 63.3396 28.6108 63.553C29.1975 63.7556 29.7041 64.0916 30.1308 64.561C30.5681 65.0303 30.7868 65.6703 30.7868 66.481C30.7868 67.185 30.5895 67.825 30.1948 68.401C29.8001 68.9663 29.2081 69.4196 28.4188 69.761C27.6401 70.0916 26.6908 70.257 25.5708 70.257ZM38.4384 61.089C39.2064 61.089 39.9104 61.2756 40.5504 61.649C41.2011 62.0116 41.7131 62.5396 42.0864 63.233C42.4704 63.9263 42.6624 64.7263 42.6624 65.633C42.6624 66.5396 42.4704 67.3396 42.0864 68.033C41.7131 68.7156 41.2011 69.2436 40.5504 69.617C39.9104 69.9796 39.2064 70.161 38.4384 70.161C37.4678 70.161 36.7264 69.9103 36.2144 69.409V73.105H32.5984V61.249H36.0384V61.969C36.5611 61.3823 37.3611 61.089 38.4384 61.089ZM37.5744 67.345C37.9904 67.345 38.3318 67.1956 38.5984 66.897C38.8651 66.5983 38.9984 66.177 38.9984 65.633C38.9984 65.089 38.8651 64.6676 38.5984 64.369C38.3318 64.0596 37.9904 63.905 37.5744 63.905C37.1584 63.905 36.8171 64.0596 36.5504 64.369C36.2838 64.6676 36.1504 65.089 36.1504 65.633C36.1504 66.177 36.2838 66.5983 36.5504 66.897C36.8171 67.1956 37.1584 67.345 37.5744 67.345ZM50.6816 61.089C51.7589 61.089 52.6229 61.4143 53.2736 62.065C53.9349 62.7156 54.2656 63.697 54.2656 65.009V70.001H50.6496V65.633C50.6496 64.6303 50.2922 64.129 49.5776 64.129C49.1722 64.129 48.8416 64.273 48.5856 64.561C48.3402 64.8383 48.2176 65.281 48.2176 65.889V70.001H44.6016V58.129H48.2176V61.953C48.8896 61.377 49.7109 61.089 50.6816 61.089ZM66.1042 65.617C66.1042 65.6703 66.0882 65.953 66.0562 66.465H59.9762C60.1042 66.7956 60.3175 67.0516 60.6162 67.233C60.9149 67.4036 61.2882 67.489 61.7362 67.489C62.1202 67.489 62.4402 67.441 62.6962 67.345C62.9629 67.249 63.2509 67.0836 63.5602 66.849L65.4482 68.753C64.5949 69.6916 63.3202 70.161 61.6242 70.161C60.5682 70.161 59.6402 69.969 58.8402 69.585C58.0402 69.1903 57.4215 68.6463 56.9842 67.953C56.5469 67.2596 56.3282 66.481 56.3282 65.617C56.3282 64.7423 56.5415 63.9636 56.9682 63.281C57.4055 62.5876 57.9975 62.049 58.7442 61.665C59.5015 61.281 60.3495 61.089 61.2882 61.089C62.1735 61.089 62.9789 61.265 63.7042 61.617C64.4402 61.969 65.0215 62.4863 65.4482 63.169C65.8855 63.8516 66.1042 64.6676 66.1042 65.617ZM61.3202 63.553C60.9469 63.553 60.6375 63.6543 60.3922 63.857C60.1469 64.0596 59.9869 64.3476 59.9122 64.721H62.7282C62.6535 64.3583 62.4935 64.0756 62.2482 63.873C62.0029 63.6596 61.6935 63.553 61.3202 63.553ZM71.4853 62.193C72.1253 61.457 73.0693 61.089 74.3173 61.089V64.289C74.0293 64.2463 73.7626 64.225 73.5173 64.225C72.28 64.225 71.6613 64.8543 71.6613 66.113V70.001H68.0453V61.249H71.4853V62.193ZM85.3761 65.617C85.3761 65.6703 85.3601 65.953 85.3281 66.465H79.2481C79.3761 66.7956 79.5894 67.0516 79.8881 67.233C80.1867 67.4036 80.5601 67.489 81.0081 67.489C81.3921 67.489 81.7121 67.441 81.9681 67.345C82.2347 67.249 82.5227 67.0836 82.8321 66.849L84.7201 68.753C83.8667 69.6916 82.5921 70.161 80.8961 70.161C79.8401 70.161 78.9121 69.969 78.1121 69.585C77.3121 69.1903 76.6934 68.6463 76.2561 67.953C75.8187 67.2596 75.6001 66.481 75.6001 65.617C75.6001 64.7423 75.8134 63.9636 76.2401 63.281C76.6774 62.5876 77.2694 62.049 78.0161 61.665C78.7734 61.281 79.6214 61.089 80.5601 61.089C81.4454 61.089 82.2507 61.265 82.9761 61.617C83.7121 61.969 84.2934 62.4863 84.7201 63.169C85.1574 63.8516 85.3761 64.6676 85.3761 65.617ZM80.5921 63.553C80.2187 63.553 79.9094 63.6543 79.6641 63.857C79.4187 64.0596 79.2587 64.3476 79.1841 64.721H82.0001C81.9254 64.3583 81.7654 64.0756 81.5201 63.873C81.2747 63.6596 80.9654 63.553 80.5921 63.553Z" fill="white"/>
<path d="M22.8508 69.953L22.6139 70.9245L22.6207 70.9262L22.6277 70.9278L22.8508 69.953ZM20.6908 69.105L19.7761 68.7008L19.4252 69.495L20.1623 69.9539L20.6908 69.105ZM21.9068 66.353L22.4085 65.4879L21.4432 64.928L20.9921 65.9488L21.9068 66.353ZM23.6988 67.105L23.42 68.0653L23.4272 68.0674L23.4344 68.0694L23.6988 67.105ZM26.7228 67.233L27.1167 68.1521L27.1349 68.1443L27.1527 68.1358L26.7228 67.233ZM26.6108 66.241L26.2335 67.1671L26.2452 67.1717L26.6108 66.241ZM25.1708 65.857L24.9654 66.8357L24.9687 66.8363L25.1708 65.857ZM23.0108 65.281L22.6635 66.2187L22.6712 66.2216L22.6789 66.2243L23.0108 65.281ZM21.5068 64.257L20.7594 64.9214L20.7669 64.9296L21.5068 64.257ZM21.4588 60.401L22.2837 60.9662L22.2837 60.9662L21.4588 60.401ZM23.2188 59.041L22.8324 58.1186L22.8279 58.1205L23.2188 59.041ZM28.3388 58.801L28.1129 59.7751L28.1211 59.777L28.1293 59.7788L28.3388 58.801ZM30.3068 59.521L31.2304 59.9044L31.5698 59.0868L30.7994 58.6507L30.3068 59.521ZM29.1708 62.257L28.7201 63.1497L29.6814 63.635L30.0944 62.6404L29.1708 62.257ZM25.0268 62.641L24.6495 63.5671L24.6644 63.5731L24.6795 63.5787L25.0268 62.641ZM26.4508 62.993L26.2608 63.9748L26.2665 63.9758L26.4508 62.993ZM28.6108 63.553L28.2691 64.4928L28.2767 64.4955L28.2843 64.4982L28.6108 63.553ZM30.1308 64.561L29.3908 65.2337L29.3992 65.2427L30.1308 64.561ZM30.1948 68.401L31.0148 68.9734L31.0197 68.9662L30.1948 68.401ZM28.4188 69.761L28.8097 70.6814L28.8157 70.6788L28.4188 69.761ZM25.5708 69.257C24.7163 69.257 23.8845 69.1637 23.074 68.9782L22.6277 70.9278C23.5878 71.1475 24.5694 71.257 25.5708 71.257V69.257ZM23.0878 68.9815C22.2824 68.785 21.6692 68.5362 21.2194 68.2561L20.1623 69.9539C20.8431 70.3778 21.6699 70.6943 22.6139 70.9245L23.0878 68.9815ZM21.6055 69.5091L22.8215 66.7571L20.9921 65.9488L19.7761 68.7008L21.6055 69.5091ZM21.4051 67.218C22.0162 67.5725 22.6897 67.8533 23.42 68.0653L23.9776 66.1446C23.3852 65.9726 22.8641 65.7522 22.4085 65.4879L21.4051 67.218ZM23.4344 68.0694C24.1711 68.2714 24.8949 68.377 25.6028 68.377V66.377C25.0947 66.377 24.5492 66.3012 23.9632 66.1406L23.4344 68.0694ZM25.6028 68.377C26.1411 68.377 26.692 68.3342 27.1167 68.1521L26.3289 66.3138C26.3349 66.3113 26.2863 66.3313 26.1473 66.3491C26.0156 66.3661 25.8366 66.377 25.6028 66.377V68.377ZM27.1527 68.1358C27.372 68.0314 27.6055 67.871 27.7848 67.6235C27.9721 67.3648 28.0588 67.0672 28.0588 66.769H26.0588C26.0588 66.6734 26.0895 66.5545 26.1649 66.4505C26.2321 66.3576 26.2976 66.3278 26.2929 66.3301L27.1527 68.1358ZM28.0588 66.769C28.0588 66.419 27.9401 66.086 27.7093 65.814C27.4943 65.5606 27.2227 65.407 26.9765 65.3102L26.2452 67.1717C26.2976 67.1923 26.25 67.1854 26.1843 67.108C26.1493 67.0667 26.1151 67.012 26.091 66.9457C26.067 66.8797 26.0588 66.8182 26.0588 66.769H28.0588ZM26.9881 65.3149C26.6086 65.1603 26.0509 65.0175 25.3729 64.8776L24.9687 66.8363C25.6347 66.9738 26.037 67.087 26.2335 67.1671L26.9881 65.3149ZM25.3762 64.8783C24.538 64.7024 23.8636 64.5209 23.3427 64.3377L22.6789 66.2243C23.31 66.4463 24.0756 66.6489 24.9654 66.8357L25.3762 64.8783ZM23.3581 64.3432C22.9373 64.1874 22.5693 63.9391 22.2468 63.5843L20.7669 64.9296C21.2976 65.5135 21.9323 65.9479 22.6635 66.2187L23.3581 64.3432ZM22.2542 63.5926C22.0296 63.3399 21.8668 62.9532 21.8668 62.321H19.8668C19.8668 63.3101 20.1307 64.2141 20.7594 64.9213L22.2542 63.5926ZM21.8668 62.321C21.8668 61.817 22.0041 61.3743 22.2837 60.9662L20.6339 59.8357C20.1242 60.5796 19.8668 61.417 19.8668 62.321H21.8668ZM22.2837 60.9662C22.5497 60.5781 22.9692 60.2334 23.6097 59.9614L22.8279 58.1205C21.9111 58.5099 21.1573 59.0719 20.6339 59.8357L22.2837 60.9662ZM23.6052 59.9633C24.2407 59.6971 25.0565 59.545 26.0828 59.545V57.545C24.8691 57.545 23.7756 57.7235 22.8324 58.1186L23.6052 59.9633ZM26.0828 59.545C26.776 59.545 27.4522 59.6219 28.1129 59.7751L28.5647 57.8268C27.7534 57.6387 26.9256 57.545 26.0828 57.545V59.545ZM28.1293 59.7788C28.7936 59.9211 29.3511 60.1291 29.8142 60.3912L30.7994 58.6507C30.1318 58.2728 29.3773 58.0008 28.5483 57.8232L28.1293 59.7788ZM29.3833 59.1375L28.2473 61.8735L30.0944 62.6404L31.2304 59.9044L29.3833 59.1375ZM29.6215 61.3643C28.4178 60.7566 27.2234 60.425 26.0508 60.425V62.425C26.8409 62.425 27.7265 62.648 28.7201 63.1497L29.6215 61.3643ZM26.0508 60.425C25.5169 60.425 24.9709 60.4844 24.5235 60.7007C24.2862 60.8154 24.044 60.9901 23.8625 61.2534C23.6755 61.5246 23.5948 61.8296 23.5948 62.129H25.5948C25.5948 62.1936 25.5748 62.2934 25.5091 62.3886C25.449 62.4758 25.3887 62.5039 25.3941 62.5013C25.4027 62.4971 25.4541 62.4754 25.5729 62.4562C25.6889 62.4376 25.8458 62.425 26.0508 62.425V60.425ZM23.5948 62.129C23.5948 62.4762 23.7138 62.8035 23.9385 63.0698C24.1477 63.3178 24.4112 63.47 24.6495 63.5671L25.4041 61.7149C25.3544 61.6946 25.4019 61.7029 25.4671 61.7801C25.5019 61.8214 25.5366 61.8766 25.5612 61.9442C25.5859 62.0118 25.5948 62.0759 25.5948 62.129H23.5948ZM24.6795 63.5787C25.0499 63.7159 25.5936 63.8456 26.2608 63.9748L26.6408 62.0112C25.9853 61.8843 25.5798 61.7794 25.3741 61.7032L24.6795 63.5787ZM26.2665 63.9758C27.0853 64.1294 27.7491 64.3037 28.2691 64.4928L28.9526 62.6132C28.2992 62.3756 27.523 62.1766 26.6351 62.0101L26.2665 63.9758ZM28.2843 64.4982C28.7089 64.6449 29.0744 64.8855 29.3909 65.2336L30.8708 63.8883C30.3339 63.2977 29.6861 62.8664 28.9373 62.6078L28.2843 64.4982ZM29.3992 65.2427C29.6219 65.4817 29.7868 65.8539 29.7868 66.481H31.7868C31.7868 65.4868 31.5144 64.5789 30.8624 63.8793L29.3992 65.2427ZM29.7868 66.481C29.7868 66.985 29.6495 67.4276 29.3699 67.8357L31.0197 68.9662C31.5295 68.2223 31.7868 67.385 31.7868 66.481H29.7868ZM29.3749 67.8286C29.1098 68.2082 28.6828 68.5573 28.0219 68.8431L28.8157 70.6788C29.7335 70.282 30.4905 69.7244 31.0148 68.9734L29.3749 67.8286ZM28.0279 68.8405C27.4059 69.1047 26.5978 69.257 25.5708 69.257V71.257C26.7838 71.257 27.8743 71.0786 28.8097 70.6814L28.0279 68.8405ZM40.5504 61.649L40.0466 62.5128L40.055 62.5177L40.0636 62.5225L40.5504 61.649ZM42.0864 63.233L41.2059 63.7071L41.2116 63.7175L42.0864 63.233ZM42.0864 68.033L41.2116 67.5485L41.2091 67.5532L42.0864 68.033ZM40.5504 69.617L41.0435 70.487L41.0481 70.4843L40.5504 69.617ZM36.2144 69.409L36.9141 68.6945L35.2144 67.0302V69.409H36.2144ZM36.2144 73.105V74.105H37.2144V73.105H36.2144ZM32.5984 73.105H31.5984V74.105H32.5984V73.105ZM32.5984 61.249V60.249H31.5984V61.249H32.5984ZM36.0384 61.249H37.0384V60.249H36.0384V61.249ZM36.0384 61.969H35.0384V64.5947L36.7851 62.6342L36.0384 61.969ZM38.5984 66.897L39.3444 67.563L39.3444 67.563L38.5984 66.897ZM38.5984 64.369L37.841 65.0219L37.8467 65.0285L37.8525 65.035L38.5984 64.369ZM36.5504 64.369L37.2964 65.035L37.3022 65.0285L37.3078 65.0219L36.5504 64.369ZM36.5504 66.897L35.8045 67.563L35.8045 67.563L36.5504 66.897ZM38.4384 62.089C39.0361 62.089 39.5652 62.232 40.0466 62.5128L41.0543 60.7852C40.2556 60.3193 39.3767 60.089 38.4384 60.089V62.089ZM40.0636 62.5225C40.5379 62.7869 40.9176 63.1716 41.206 63.7071L42.9669 62.7589C42.5086 61.9077 41.8643 61.2364 41.0373 60.7755L40.0636 62.5225ZM41.2116 63.7175C41.5023 64.2423 41.6624 64.8711 41.6624 65.633H43.6624C43.6624 64.5815 43.4385 63.6103 42.9612 62.7485L41.2116 63.7175ZM41.6624 65.633C41.6624 66.3948 41.5023 67.0236 41.2116 67.5485L42.9612 68.5175C43.4385 67.6557 43.6624 66.6844 43.6624 65.633H41.6624ZM41.2091 67.5532C40.9207 68.0804 40.5374 68.4715 40.0528 68.7496L41.0481 70.4843C41.8648 70.0158 42.5055 69.3508 42.9638 68.5128L41.2091 67.5532ZM40.0574 68.747C39.5745 69.0206 39.0415 69.161 38.4384 69.161V71.161C39.3713 71.161 40.2464 70.9387 41.0434 70.487L40.0574 68.747ZM38.4384 69.161C37.6344 69.161 37.1808 68.9556 36.9141 68.6945L35.5148 70.1235C36.2721 70.865 37.3012 71.161 38.4384 71.161V69.161ZM35.2144 69.409V73.105H37.2144V69.409H35.2144ZM36.2144 72.105H32.5984V74.105H36.2144V72.105ZM33.5984 73.105V61.249H31.5984V73.105H33.5984ZM32.5984 62.249H36.0384V60.249H32.5984V62.249ZM35.0384 61.249V61.969H37.0384V61.249H35.0384ZM36.7851 62.6342C37.0553 62.3309 37.536 62.089 38.4384 62.089V60.089C37.1862 60.089 36.0669 60.4337 35.2918 61.3038L36.7851 62.6342ZM37.5744 68.345C38.2627 68.345 38.8797 68.0834 39.3444 67.563L37.8525 66.231C37.7838 66.3079 37.7182 66.345 37.5744 66.345V68.345ZM39.3444 67.563C39.8255 67.0241 39.9984 66.3337 39.9984 65.633H37.9984C37.9984 66.0202 37.9047 66.1725 37.8525 66.231L39.3444 67.563ZM39.9984 65.633C39.9984 64.9322 39.8255 64.2418 39.3444 63.703L37.8525 65.035C37.9047 65.0934 37.9984 65.2457 37.9984 65.633H39.9984ZM39.3558 63.716C38.8952 63.1817 38.2752 62.905 37.5744 62.905V64.905C37.7057 64.905 37.7683 64.9376 37.841 65.0219L39.3558 63.716ZM37.5744 62.905C36.8737 62.905 36.2537 63.1817 35.793 63.716L37.3078 65.0219C37.3805 64.9376 37.4432 64.905 37.5744 64.905V62.905ZM35.8045 63.703C35.3233 64.2418 35.1504 64.9322 35.1504 65.633H37.1504C37.1504 65.2457 37.2442 65.0934 37.2964 65.035L35.8045 63.703ZM35.1504 65.633C35.1504 66.3337 35.3233 67.0241 35.8045 67.563L37.2964 66.231C37.2442 66.1725 37.1504 66.0202 37.1504 65.633H35.1504ZM35.8045 67.563C36.2691 68.0834 36.8862 68.345 37.5744 68.345V66.345C37.4307 66.345 37.3651 66.3079 37.2964 66.231L35.8045 67.563ZM53.2736 62.065L52.5664 62.7721L52.5722 62.7778L53.2736 62.065ZM54.2656 70.001V71.001H55.2656V70.001H54.2656ZM50.6496 70.001H49.6496V71.001H50.6496V70.001ZM48.5856 64.561L47.8381 63.8966L47.8366 63.8984L48.5856 64.561ZM48.2176 70.001V71.001H49.2176V70.001H48.2176ZM44.6016 70.001H43.6016V71.001H44.6016V70.001ZM44.6016 58.129V57.129H43.6016V58.129H44.6016ZM48.2176 58.129H49.2176V57.129H48.2176V58.129ZM48.2176 61.953H47.2176V64.1272L48.8684 62.7122L48.2176 61.953ZM50.6816 62.089C51.5425 62.089 52.1353 62.3409 52.5665 62.7721L53.9807 61.3579C53.1105 60.4877 51.9753 60.089 50.6816 60.089V62.089ZM52.5722 62.7778C52.9749 63.174 53.2656 63.8525 53.2656 65.009H55.2656C55.2656 63.5415 54.8948 62.2573 53.9749 61.3521L52.5722 62.7778ZM53.2656 65.009V70.001H55.2656V65.009H53.2656ZM54.2656 69.001H50.6496V71.001H54.2656V69.001ZM51.6496 70.001V65.633H49.6496V70.001H51.6496ZM51.6496 65.633C51.6496 65.0431 51.5499 64.4212 51.1959 63.9246C50.7974 63.3655 50.1986 63.129 49.5776 63.129V65.129C49.6397 65.129 49.6462 65.1397 49.6229 65.1288C49.5944 65.1155 49.5737 65.0945 49.5672 65.0854C49.5652 65.0825 49.5875 65.1128 49.6096 65.2061C49.6319 65.2999 49.6496 65.4385 49.6496 65.633H51.6496ZM49.5776 63.129C48.9034 63.129 48.2948 63.3829 47.8382 63.8966L49.333 65.2253C49.3883 65.1631 49.4411 65.129 49.5776 65.129V63.129ZM47.8366 63.8984C47.3534 64.4446 47.2176 65.1834 47.2176 65.889H49.2176C49.2176 65.3785 49.3271 65.232 49.3346 65.2236L47.8366 63.8984ZM47.2176 65.889V70.001H49.2176V65.889H47.2176ZM48.2176 69.001H44.6016V71.001H48.2176V69.001ZM45.6016 70.001V58.129H43.6016V70.001H45.6016ZM44.6016 59.129H48.2176V57.129H44.6016V59.129ZM47.2176 58.129V61.953H49.2176V58.129H47.2176ZM48.8684 62.7122C49.3411 62.307 49.9248 62.089 50.6816 62.089V60.089C49.497 60.089 48.438 60.4469 47.5668 61.1937L48.8684 62.7122ZM66.0562 66.465V67.465H66.9956L67.0542 66.5274L66.0562 66.465ZM59.9762 66.465V65.465H58.5168L59.0436 66.826L59.9762 66.465ZM60.6162 67.233L60.0972 68.0878L60.1085 68.0946L60.12 68.1012L60.6162 67.233ZM62.6962 67.345L62.3574 66.404L62.3451 66.4086L62.6962 67.345ZM63.5602 66.849L64.2703 66.1449L63.6536 65.5229L62.9558 66.0523L63.5602 66.849ZM65.4482 68.753L66.1881 69.4256L66.8268 68.7231L66.1583 68.0489L65.4482 68.753ZM58.8402 69.585L58.3977 70.4818L58.4075 70.4865L58.8402 69.585ZM56.9842 67.953L57.83 67.4195L56.9842 67.953ZM56.9682 63.281L56.1224 62.7475L56.1202 62.751L56.9682 63.281ZM58.7442 61.665L58.2919 60.7731L58.2868 60.7757L58.7442 61.665ZM63.7042 61.617L63.2676 62.5166L63.2727 62.5191L63.7042 61.617ZM65.4482 63.169L64.6001 63.699L64.6062 63.7084L65.4482 63.169ZM60.3922 63.857L61.0291 64.6279L61.0291 64.6279L60.3922 63.857ZM59.9122 64.721L58.9316 64.5249L58.6924 65.721H59.9122V64.721ZM62.7282 64.721V65.721H63.955L63.7076 64.5193L62.7282 64.721ZM62.2482 63.873L61.592 64.6276L61.6016 64.6359L61.6113 64.6439L62.2482 63.873ZM65.1042 65.617C65.1042 65.6078 65.1027 65.6555 65.0938 65.8125C65.086 65.9509 65.0741 66.1473 65.0581 66.4026L67.0542 66.5274C67.0846 66.042 67.1042 65.7112 67.1042 65.617H65.1042ZM66.0562 65.465H59.9762V67.465H66.0562V65.465ZM59.0436 66.826C59.25 67.3591 59.607 67.7901 60.0972 68.0878L61.1352 66.3782C61.028 66.3132 60.9584 66.2322 60.9088 66.104L59.0436 66.826ZM60.12 68.1012C60.6088 68.3805 61.1654 68.489 61.7362 68.489V66.489C61.411 66.489 61.2209 66.4268 61.1123 66.3647L60.12 68.1012ZM61.7362 68.489C62.1953 68.489 62.6436 68.4327 63.0473 68.2813L62.3451 66.4086C62.2368 66.4493 62.0451 66.489 61.7362 66.489V68.489ZM63.0349 68.2859C63.4248 68.1455 63.8021 67.9206 64.1646 67.6457L62.9558 66.0523C62.6996 66.2467 62.5009 66.3525 62.3575 66.4041L63.0349 68.2859ZM62.8501 67.5531L64.7381 69.4571L66.1583 68.0489L64.2703 66.1449L62.8501 67.5531ZM64.7082 68.0803C64.1024 68.7468 63.1379 69.161 61.6242 69.161V71.161C63.5024 71.161 65.0873 70.6365 66.1881 69.4256L64.7082 68.0803ZM61.6242 69.161C60.6898 69.161 59.9146 68.9915 59.2729 68.6835L58.4075 70.4865C59.3658 70.9465 60.4466 71.161 61.6242 71.161V69.161ZM59.2826 68.6882C58.6329 68.3676 58.1603 67.9432 57.83 67.4195L56.1384 68.4865C56.6827 69.3495 57.4475 70.013 58.3978 70.4818L59.2826 68.6882ZM57.83 67.4195C57.4989 66.8947 57.3282 66.3028 57.3282 65.617H55.3282C55.3282 66.6591 55.5948 67.6246 56.1384 68.4865L57.83 67.4195ZM57.3282 65.617C57.3282 64.9129 57.4974 64.321 57.8162 63.811L56.1202 62.751C55.5856 63.6063 55.3282 64.5717 55.3282 65.617H57.3282ZM57.814 63.8145C58.1536 63.2761 58.6098 62.8586 59.2015 62.5543L58.2868 60.7757C57.3853 61.2394 56.6575 61.8992 56.1224 62.7475L57.814 63.8145ZM59.1964 62.5569C59.7993 62.2512 60.4898 62.089 61.2882 62.089V60.089C60.2092 60.089 59.2037 60.3108 58.292 60.7731L59.1964 62.5569ZM61.2882 62.089C62.0373 62.089 62.6912 62.2369 63.2676 62.5166L64.1408 60.7173C63.2665 60.293 62.3097 60.089 61.2882 60.089V62.089ZM63.2727 62.5191C63.8398 62.7903 64.2756 63.1797 64.6002 63.699L66.2962 62.639C65.7674 61.7929 65.0406 61.1476 64.1356 60.7148L63.2727 62.5191ZM64.6062 63.7084C64.9237 64.2042 65.1042 64.8256 65.1042 65.617H67.1042C67.1042 64.5097 66.8473 63.4991 66.2902 62.6295L64.6062 63.7084ZM61.3202 62.553C60.7566 62.553 60.2099 62.7105 59.7553 63.086L61.0291 64.6279C61.0651 64.5981 61.1371 64.553 61.3202 64.553V62.553ZM59.7553 63.086C59.2996 63.4624 59.0421 63.9722 58.9316 64.5249L60.8928 64.9171C60.9316 64.7231 60.9941 64.6568 61.0291 64.6279L59.7553 63.086ZM59.9122 65.721H62.7282V63.721H59.9122V65.721ZM63.7076 64.5193C63.5949 63.9716 63.3341 63.4729 62.8851 63.102L61.6113 64.6439C61.653 64.6784 61.7122 64.745 61.7487 64.9226L63.7076 64.5193ZM62.9044 63.1184C62.4503 62.7235 61.8967 62.553 61.3202 62.553V64.553C61.4904 64.553 61.5554 64.5958 61.592 64.6276L62.9044 63.1184ZM71.4853 62.193H70.4853V64.867L72.2399 62.8492L71.4853 62.193ZM74.3173 61.089H75.3173V60.089H74.3173V61.089ZM74.3173 64.289L74.1708 65.2782L75.3173 65.448V64.289H74.3173ZM71.6613 70.001V71.001H72.6613V70.001H71.6613ZM68.0453 70.001H67.0453V71.001H68.0453V70.001ZM68.0453 61.249V60.249H67.0453V61.249H68.0453ZM71.4853 61.249H72.4853V60.249H71.4853V61.249ZM72.2399 62.8492C72.6396 62.3895 73.272 62.089 74.3173 62.089V60.089C72.8666 60.089 71.611 60.5245 70.7307 61.5368L72.2399 62.8492ZM73.3173 61.089V64.289H75.3173V61.089H73.3173ZM74.4639 63.2998C74.136 63.2512 73.8197 63.225 73.5173 63.225V65.225C73.7055 65.225 73.9226 65.2414 74.1708 65.2782L74.4639 63.2998ZM73.5173 63.225C72.7401 63.225 71.9745 63.4239 71.4122 63.9959C70.8529 64.5648 70.6613 65.3338 70.6613 66.113H72.6613C72.6613 65.6335 72.779 65.4585 72.8384 65.398C72.8948 65.3407 73.0572 65.225 73.5173 65.225V63.225ZM70.6613 66.113V70.001H72.6613V66.113H70.6613ZM71.6613 69.001H68.0453V71.001H71.6613V69.001ZM69.0453 70.001V61.249H67.0453V70.001H69.0453ZM68.0453 62.249H71.4853V60.249H68.0453V62.249ZM70.4853 61.249V62.193H72.4853V61.249H70.4853ZM85.3281 66.465V67.465H86.2675L86.3261 66.5274L85.3281 66.465ZM79.2481 66.465V65.465H77.7887L78.3155 66.826L79.2481 66.465ZM79.8881 67.233L79.3691 68.0878L79.3804 68.0946L79.3919 68.1012L79.8881 67.233ZM81.9681 67.345L81.6293 66.404L81.6169 66.4086L81.9681 67.345ZM82.8321 66.849L83.5421 66.1449L82.9255 65.5229L82.2277 66.0523L82.8321 66.849ZM84.7201 68.753L85.46 69.4256L86.0987 68.7231L85.4301 68.0489L84.7201 68.753ZM78.1121 69.585L77.6696 70.4818L77.6793 70.4865L78.1121 69.585ZM76.2561 67.953L77.1019 67.4195L76.2561 67.953ZM76.2401 63.281L75.3943 62.7475L75.3921 62.751L76.2401 63.281ZM78.0161 61.665L77.5638 60.7731L77.5587 60.7757L78.0161 61.665ZM82.9761 61.617L82.5395 62.5166L82.5446 62.5191L82.9761 61.617ZM84.7201 63.169L83.872 63.699L83.878 63.7084L84.7201 63.169ZM79.6641 63.857L80.3009 64.6279L80.3009 64.6279L79.6641 63.857ZM79.1841 64.721L78.2035 64.5249L77.9643 65.721H79.1841V64.721ZM82.0001 64.721V65.721H83.2269L82.9795 64.5193L82.0001 64.721ZM81.5201 63.873L80.8639 64.6276L80.8734 64.6359L80.8832 64.6439L81.5201 63.873ZM84.3761 65.617C84.3761 65.6078 84.3745 65.6555 84.3657 65.8125C84.3578 65.9509 84.346 66.1473 84.33 66.4026L86.3261 66.5274C86.3564 66.042 86.3761 65.7112 86.3761 65.617H84.3761ZM85.3281 65.465H79.2481V67.465H85.3281V65.465ZM78.3155 66.826C78.5218 67.3591 78.8789 67.7901 79.3691 68.0878L80.407 66.3782C80.2999 66.3132 80.2303 66.2322 80.1806 66.104L78.3155 66.826ZM79.3919 68.1012C79.8807 68.3805 80.4373 68.489 81.0081 68.489V66.489C80.6828 66.489 80.4928 66.4268 80.3842 66.3647L79.3919 68.1012ZM81.0081 68.489C81.4672 68.489 81.9155 68.4327 82.3192 68.2813L81.6169 66.4086C81.5086 66.4493 81.3169 66.489 81.0081 66.489V68.489ZM82.3068 68.2859C82.6967 68.1455 83.074 67.9206 83.4364 67.6457L82.2277 66.0523C81.9714 66.2467 81.7727 66.3525 81.6293 66.4041L82.3068 68.2859ZM82.122 67.5531L84.01 69.4571L85.4301 68.0489L83.5421 66.1449L82.122 67.5531ZM83.9801 68.0803C83.3742 68.7468 82.4098 69.161 80.8961 69.161V71.161C82.7743 71.161 84.3592 70.6365 85.46 69.4256L83.9801 68.0803ZM80.8961 69.161C79.9617 69.161 79.1865 68.9915 78.5448 68.6835L77.6793 70.4865C78.6377 70.9465 79.7184 71.161 80.8961 71.161V69.161ZM78.5545 68.6882C77.9048 68.3676 77.4322 67.9432 77.1019 67.4195L75.4103 68.4865C75.9546 69.3495 76.7194 70.013 77.6696 70.4818L78.5545 68.6882ZM77.1019 67.4195C76.7708 66.8947 76.6001 66.3028 76.6001 65.617H74.6001C74.6001 66.6591 74.8666 67.6246 75.4103 68.4865L77.1019 67.4195ZM76.6001 65.617C76.6001 64.9129 76.7693 64.321 77.0881 63.811L75.3921 62.751C74.8575 63.6063 74.6001 64.5717 74.6001 65.617H76.6001ZM77.0859 63.8145C77.4254 63.2761 77.8817 62.8586 78.4734 62.5543L77.5587 60.7757C76.6571 61.2394 75.9294 61.8992 75.3943 62.7475L77.0859 63.8145ZM78.4683 62.5569C79.0712 62.2512 79.7617 62.089 80.5601 62.089V60.089C79.4811 60.089 78.4756 60.3108 77.5638 60.7731L78.4683 62.5569ZM80.5601 62.089C81.3092 62.089 81.9631 62.2369 82.5395 62.5166L83.4127 60.7173C82.5383 60.293 81.5816 60.089 80.5601 60.089V62.089ZM82.5446 62.5191C83.1117 62.7903 83.5475 63.1797 83.8721 63.699L85.5681 62.639C85.0393 61.7929 84.3125 61.1476 83.4075 60.7148L82.5446 62.5191ZM83.878 63.7084C84.1956 64.2042 84.3761 64.8256 84.3761 65.617H86.3761C86.3761 64.5097 86.1192 63.4991 85.5621 62.6295L83.878 63.7084ZM80.5921 62.553C80.0285 62.553 79.4818 62.7105 79.0272 63.086L80.3009 64.6279C80.337 64.5981 80.409 64.553 80.5921 64.553V62.553ZM79.0272 63.086C78.5715 63.4624 78.314 63.9722 78.2035 64.5249L80.1646 64.9171C80.2034 64.7231 80.266 64.6568 80.3009 64.6279L79.0272 63.086ZM79.1841 65.721H82.0001V63.721H79.1841V65.721ZM82.9795 64.5193C82.8668 63.9716 82.6059 63.4729 82.1569 63.102L80.8832 64.6439C80.9249 64.6784 80.984 64.745 81.0206 64.9226L82.9795 64.5193ZM82.1762 63.1184C81.7222 62.7235 81.1685 62.553 80.5921 62.553V64.553C80.7622 64.553 80.8273 64.5958 80.8639 64.6276L82.1762 63.1184Z" fill="url(#paint0_linear)"/>
<path d="M64.1494 48.7568L64.2549 48.6338L64.3076 48.458C64.624 48.0244 65.1807 47.4619 65.9775 46.7705C66.7744 46.0674 67.3252 45.499 67.6299 45.0654C67.7471 44.8779 67.8818 44.7432 68.0342 44.6611C68.1865 44.5791 68.3389 44.5381 68.4912 44.5381C68.9014 44.5381 69.2471 44.6436 69.5283 44.8545C69.8096 45.0537 69.9971 45.3584 70.0908 45.7686C70.1729 46.1318 70.249 46.501 70.3193 46.876C70.3896 47.2393 70.4482 47.6084 70.4951 47.9834C70.5771 48.2178 70.6768 48.5752 70.7939 49.0557C70.9111 49.5244 70.999 49.7939 71.0576 49.8643C71.1162 49.9814 71.2041 50.0693 71.3213 50.1279C71.4385 50.1748 71.585 50.1982 71.7607 50.1982C71.9717 50.1982 72.1885 50.1631 72.4111 50.0928C72.6338 50.0107 72.8623 49.876 73.0967 49.6885C73.2725 49.5361 73.4541 49.3838 73.6416 49.2314C73.8408 49.0674 74.0342 48.9092 74.2217 48.7568L74.9248 50.374C74.7373 50.5615 74.4854 50.7783 74.1689 51.0244C73.8643 51.2588 73.4951 51.5342 73.0615 51.8506C72.5811 52.2021 72.1709 52.4658 71.8311 52.6416C71.4912 52.8057 71.2334 52.8877 71.0576 52.8877C69.9912 52.8877 69.2998 52.7646 68.9834 52.5186C68.667 52.2725 68.3154 51.5869 67.9287 50.4619C67.8818 50.3682 67.8115 50.2568 67.7178 50.1279C67.624 49.999 67.5186 49.8467 67.4014 49.6709C67.2607 49.4014 67.1377 49.2021 67.0322 49.0732C66.9268 48.9326 66.8389 48.8623 66.7686 48.8623C66.5811 48.8623 66.3291 48.9912 66.0127 49.249C65.6963 49.4951 65.3096 49.8701 64.8525 50.374C64.7939 50.2217 64.7236 50.04 64.6416 49.8291C64.5479 49.6182 64.4541 49.3721 64.3604 49.0908C64.3369 49.0205 64.3076 48.9561 64.2725 48.8975C64.2373 48.8389 64.1963 48.792 64.1494 48.7568ZM71.4971 34.8877C71.79 34.8877 72.001 34.9463 72.1299 35.0635C72.2705 35.1807 72.3408 35.3506 72.3408 35.5732C72.2705 35.9014 72.2119 36.1768 72.165 36.3994C72.0479 36.8213 71.9424 37.167 71.8486 37.4365C71.7666 37.7061 71.7021 37.8994 71.6553 38.0166C71.5498 38.2744 71.4033 38.5029 71.2158 38.7021C71.04 38.8896 70.8232 39.0596 70.5654 39.2119C70.2959 39.3994 70.0674 39.5342 69.8799 39.6162C69.7041 39.6865 69.5811 39.7158 69.5107 39.7041C69.3115 39.6807 69.1182 39.6631 68.9307 39.6514C68.7549 39.6279 68.5791 39.6162 68.4033 39.6162C68.251 39.5342 68.1279 39.376 68.0342 39.1416C67.9521 38.9072 67.9111 38.5908 67.9111 38.1924C67.9111 37.8408 68.1221 37.4014 68.5439 36.874C68.9775 36.335 69.3584 36.0479 69.6865 36.0127C69.8857 35.7666 70.1201 35.4854 70.3896 35.1689C70.5068 35.0869 70.6592 35.0225 70.8467 34.9756C71.0342 34.917 71.251 34.8877 71.4971 34.8877Z" fill="white"/>
<path d="M74.2217 48.7627C74.3271 48.6455 74.4326 48.5049 74.5381 48.3408C74.6436 48.165 74.7842 47.9775 74.96 47.7783L76.1201 46.7588C76.167 46.7236 76.1904 46.6768 76.1904 46.6182C76.2021 46.5596 76.208 46.4775 76.208 46.3721C76.1963 46.2197 76.1787 46.0967 76.1553 46.0029C76.1553 45.7334 76.208 45.2822 76.3135 44.6494C76.4189 44.0166 76.5127 43.6357 76.5947 43.5068L76.4893 43.1729C76.6416 42.3877 76.8525 41.5322 77.1221 40.6064C77.4033 39.6689 77.7197 38.6553 78.0713 37.5654C78.1885 37.3779 78.3115 37.1436 78.4404 36.8623C78.5693 36.5693 78.7158 36.2412 78.8799 35.8779C79.0791 35.2686 79.3428 34.6299 79.6709 33.9619C79.999 33.2939 80.3682 32.6084 80.7783 31.9053C81.3291 30.9795 81.8154 30.2822 82.2373 29.8135C82.6709 29.3447 83.0576 29.1104 83.3975 29.1104C84.0772 29.1104 84.54 29.2451 84.7861 29.5146C85.044 29.7725 85.1729 30.2646 85.1729 30.9912C85.1729 31.1787 85.1377 31.4717 85.0674 31.8701C85.0088 32.2568 84.9795 32.5498 84.9795 32.749C84.9795 32.9482 84.915 33.2295 84.7861 33.5928C84.6572 33.9561 84.5928 34.29 84.5928 34.5947C84.5811 34.6885 84.5518 34.7822 84.5049 34.876L84.5225 35.1221C84.4756 35.2861 84.4053 35.4854 84.3115 35.7197C84.2178 35.9541 84.0947 36.2354 83.9424 36.5635C83.8604 36.8564 83.7549 37.1963 83.626 37.583C83.4971 37.9697 83.3447 38.3916 83.169 38.8486C83.0986 38.9658 83.0049 39.1123 82.8877 39.2881C82.7822 39.4521 82.665 39.6396 82.5361 39.8506C82.501 40.0029 82.4424 40.1787 82.3604 40.3779C82.2783 40.5771 82.167 40.8115 82.0264 41.0811C81.9561 41.2217 81.8623 41.374 81.7451 41.5381C81.6279 41.7021 81.4873 41.9131 81.3232 42.1709C81.2529 42.2881 81.1768 42.4346 81.0947 42.6104C81.0127 42.7861 80.919 42.9854 80.8135 43.208C80.6846 43.4072 80.5147 43.6533 80.3037 43.9463C80.0928 44.2393 79.8525 44.585 79.583 44.9834C79.2197 45.6279 78.8447 46.2432 78.458 46.8291C78.458 47.9658 78.6807 48.8271 79.126 49.4131C79.583 49.9873 80.2627 50.2744 81.165 50.2744C81.2236 50.2744 81.3994 50.2334 81.6924 50.1514C81.9854 50.0693 82.3897 49.9404 82.9053 49.7646C83.0576 49.6709 83.2393 49.542 83.4502 49.3779C83.6611 49.2021 83.9014 48.9971 84.1709 48.7627L84.8565 50.3799C84.5518 50.6494 84.2471 50.9248 83.9424 51.2061C83.6377 51.4873 83.3272 51.7627 83.0107 52.0322C82.6475 52.3369 82.2783 52.5713 81.9033 52.7354C81.5283 52.8877 81.1592 52.9639 80.7959 52.9639C80.6084 52.9639 80.3213 52.9463 79.9346 52.9111C79.5479 52.8643 79.2549 52.8408 79.0557 52.8408C78.3994 52.8408 77.8545 52.5771 77.4209 52.0498C76.999 51.5225 76.7002 50.7314 76.5244 49.6768C76.501 49.5713 76.4658 49.4775 76.4189 49.3955C76.3838 49.3135 76.3135 49.2197 76.208 49.1143C76.0557 49.2666 75.874 49.4482 75.6631 49.6592C75.4639 49.8701 75.2178 50.1104 74.9248 50.3799L74.2217 48.7627ZM82.6065 34.9639L82.4834 34.8936C81.8272 35.5264 81.3291 36.124 80.9893 36.6865C80.6611 37.249 80.4971 37.7939 80.4971 38.3213C80.4971 38.4033 80.4561 38.5439 80.374 38.7432C80.3037 38.9307 80.1924 39.1768 80.04 39.4814C79.8525 39.8447 79.6592 40.2432 79.46 40.6768C79.2373 41.333 79.0674 41.8662 78.9502 42.2764C78.833 42.6865 78.7744 42.9795 78.7744 43.1553L78.8799 43.2959C78.9854 43.2842 79.1143 43.1787 79.2666 42.9795C79.4189 42.7803 79.5947 42.4873 79.7939 42.1006C79.8877 41.8896 80.0225 41.6436 80.1982 41.3623C80.374 41.0811 80.5732 40.7471 80.7959 40.3604C80.9834 40.1025 81.2822 39.4404 81.6924 38.374C82.1025 37.3076 82.3252 36.6279 82.3604 36.335C82.3721 36.1006 82.4014 35.8721 82.4482 35.6494C82.5068 35.415 82.5596 35.1865 82.6065 34.9639Z" fill="white"/>
<circle cx="31.8455" cy="40.0285" r="12.8611" transform="rotate(-79.4237 31.8455 40.0285)" fill="url(#paint1_linear)"/>
<ellipse cx="26.5966" cy="35.2926" rx="5.49027" ry="8.83518" transform="rotate(-137.266 26.5966 35.2926)" fill="#FFE5A3"/>
<ellipse rx="5.68175" ry="9.10322" transform="matrix(-0.80495 -0.593342 0.650654 -0.759374 26.747 35.2844)" fill="url(#paint2_linear)"/>
<path d="M49.0609 44.1479C49.058 43.9956 49.0956 43.8132 49.1737 43.6008C49.2635 43.3881 49.3938 43.1454 49.5645 42.8727C49.804 42.5166 49.9804 42.2378 50.0939 42.0365C50.219 41.8349 50.2869 41.7047 50.2976 41.6459C50.3537 41.5159 50.4267 41.3446 50.5165 41.1319C50.618 40.9191 50.7307 40.6767 50.8546 40.4048C50.9693 40.2737 51.0989 39.9958 51.2433 39.5712C51.3876 39.1348 51.5527 38.5633 51.7388 37.8566C51.829 37.6674 51.9244 37.4429 52.0251 37.1831C52.1255 36.9117 52.2485 36.5929 52.394 36.2269C52.4358 35.9565 52.5178 35.6385 52.6399 35.2729C52.762 34.9073 52.9185 34.5 53.1093 34.051C53.3475 33.6246 53.5975 33.2039 53.8593 32.7887C54.1212 32.3736 54.5021 32.0618 55.0022 31.8532C55.2038 31.9783 55.3585 32.1044 55.4664 32.2313C55.5743 32.3582 55.6293 32.4802 55.6315 32.5974C55.6369 32.8903 55.5095 33.2854 55.2492 33.7825C55.0004 34.2677 54.8777 34.5982 54.881 34.7739C54.8827 34.8677 54.9371 34.9545 55.0441 35.0346C55.1369 34.986 55.3042 34.8422 55.5459 34.6033C55.7875 34.3643 56.1038 34.042 56.4948 33.6362C56.8171 33.3254 57.1055 33.0739 57.3597 32.8816C57.6255 32.6774 57.8751 32.5496 58.1086 32.4984C58.2598 32.437 58.4521 32.3806 58.6856 32.3294C58.919 32.2782 59.1812 32.1971 59.4722 32.0861C59.623 32.0013 59.7445 31.917 59.8367 31.8332C59.9174 31.7614 60.0449 31.6887 60.2194 31.6151L60.484 31.6629C60.5914 31.7664 60.8864 31.8722 61.369 31.9804C61.8513 32.0769 62.157 32.1239 62.2858 32.1215C62.3924 32.1781 62.5172 32.2696 62.6602 32.3958C62.8032 32.5221 62.9874 32.6593 63.2129 32.8074C63.6868 33.0799 64.1281 33.4877 64.5367 34.031C64.9569 34.5623 65.3385 35.2291 65.6817 36.0314C66.0001 36.7639 66.2417 37.4626 66.4065 38.1276C66.583 38.7924 66.6771 39.4353 66.6887 40.0563C66.7252 42.013 66.5109 43.7165 66.0457 45.1668C65.5806 46.6172 64.8586 47.8145 63.88 48.7587C63.788 48.8542 63.6731 48.9735 63.5351 49.1168C63.4086 49.2481 63.2475 49.4093 63.0518 49.6005L63.0554 49.7938C63.0342 49.9114 62.9663 50.0416 62.8518 50.1844C62.7487 50.3153 62.5993 50.4704 62.4034 50.6499C61.9773 51.0563 61.5454 51.4688 61.1079 51.8872C60.6701 52.2939 60.2205 52.6949 59.759 53.0903C59.1826 53.6051 58.6335 54.0138 58.1117 54.3166C57.5899 54.6194 57.0841 54.8339 56.5942 54.9603C56.3868 55.1517 56.1259 55.3031 55.8115 55.4144C55.5086 55.5139 55.1345 55.5677 54.6893 55.576C54.0332 55.5883 53.4993 55.5573 53.0877 55.4829C52.6758 55.3968 52.3805 55.2734 52.2017 55.1127C52.0943 55.0092 51.9693 54.906 51.8267 54.8032C51.6842 54.7004 51.5176 54.5687 51.3271 54.4082C51.125 54.2596 50.9324 53.9877 50.7492 53.5926C50.5658 53.1858 50.3978 52.6615 50.2452 52.0197C50.1425 51.5411 50.0577 51.0797 49.9908 50.6356C49.9354 50.1795 49.9041 49.7581 49.8968 49.3715C49.8946 49.2543 49.9203 49.0605 49.9739 48.7899C50.0274 48.5193 50.047 48.3138 50.0327 48.1734C50.0277 47.9039 50.0116 47.6698 49.9844 47.4711C49.9805 47.2602 50.0387 46.9251 50.159 46.4657C50.2794 46.0063 50.337 45.6419 50.332 45.3724C50.3309 45.3139 50.2941 45.2266 50.2216 45.1108C50.0381 45.3252 49.907 45.521 49.8282 45.6983C49.7601 45.8168 49.6797 45.9062 49.5871 45.9665C49.4945 46.0269 49.4071 46.0578 49.3251 46.0593C49.1962 46.0617 49.0898 46.011 49.0058 45.9071C48.9335 45.8029 48.8954 45.6454 48.8915 45.4345C48.8889 45.2939 48.9142 45.0825 48.9676 44.8002C49.0326 44.5176 49.0637 44.3002 49.0609 44.1479ZM59.4454 35.3568C59.1642 35.362 58.8778 35.4025 58.5862 35.4783C58.2946 35.5541 57.9976 35.6592 57.6954 35.7938L56.0048 36.5814C55.8887 36.6421 55.7557 36.7384 55.6058 36.8701C55.4676 37.0016 55.3127 37.1803 55.1411 37.4062L54.3514 38.4231C54.0993 38.7326 53.8812 39.2934 53.6971 40.1055C53.513 40.9177 53.357 41.9755 53.2289 43.2789C53.1304 44.277 53.0658 45.21 53.0351 46.0779C53.0042 46.9341 52.9955 47.7254 53.0091 48.4519C53.0369 49.9399 53.2862 51.0487 53.7569 51.7783C54.2274 52.4962 54.9255 52.8466 55.8511 52.8293C56.2846 52.8212 56.7688 52.7008 57.3036 52.4681C57.8382 52.2237 58.4175 51.8612 59.0414 51.3808C59.5729 50.9723 60.04 50.5651 60.4427 50.1591C60.8451 49.7413 61.1771 49.319 61.4387 48.8922C61.5528 48.726 61.728 48.3769 61.9642 47.8451C62.2121 47.313 62.5501 46.5859 62.9783 45.6637C63.2588 44.9903 63.4746 44.3124 63.626 43.6297C63.7771 42.9354 63.8459 42.225 63.8323 41.4986C63.7555 41.1484 63.6728 40.8041 63.5845 40.4659L63.6934 39.7079C63.5736 39.5695 63.4716 39.4424 63.3874 39.3268C63.3505 39.2337 63.3198 39.1581 63.2952 39.1C62.9084 37.8413 62.3986 36.9015 61.7658 36.2804C61.1327 35.6476 60.3593 35.3397 59.4454 35.3568Z" fill="white"/>
<defs>
<linearGradient id="paint0_linear" x1="54" y1="46.501" x2="61" y2="78.001" gradientUnits="userSpaceOnUse">
<stop stop-color="#F8CA55"/>
<stop offset="1" stop-opacity="0"/>
</linearGradient>
<linearGradient id="paint1_linear" x1="46.5941" y1="37.2747" x2="17.0975" y2="42.7823" gradientUnits="userSpaceOnUse">
<stop stop-color="#FFE08F"/>
<stop offset="1" stop-color="#F8C84F"/>
</linearGradient>
<linearGradient id="paint2_linear" x1="5.68175" y1="0" x2="5.68175" y2="18.2064" gradientUnits="userSpaceOnUse">
<stop stop-color="#FAD269"/>
<stop offset="1" stop-color="#FFE5A3" stop-opacity="0"/>
</linearGradient>
</defs>
</svg>
